<?xml version="1.0" encoding="UTF-8" standalone="no"?>
<!-- Created with Inkscape (http://www.inkscape.org/) -->

<svg
   xmlns:dc="http://purl.org/dc/elements/1.1/"
   xmlns:cc="http://creativecommons.org/ns#"
   xmlns:rdf="http://www.w3.org/1999/02/22-rdf-syntax-ns#"
   xmlns:svg="http://www.w3.org/2000/svg"
   xmlns="http://www.w3.org/2000/svg"
   xmlns:sodipodi="http://sodipodi.sourceforge.net/DTD/sodipodi-0.dtd"
   xmlns:inkscape="http://www.inkscape.org/namespaces/inkscape"
   version="1.1"
   id="svg117389"
   xml:space="preserve"
   width="800"
   height="800"
   viewBox="0 0 800 800"
   sodipodi:docname="woman-of-revolution-publicdomainvectors.org.svg"
   inkscape:version="0.92.4 (5da689c313, 2019-01-14)"><metadata
     id="metadata117395"><rdf:RDF><cc:Work
         rdf:about=""><dc:format>image/svg+xml</dc:format><dc:type
           rdf:resource="http://purl.org/dc/dcmitype/StillImage" /><dc:title></dc:title></cc:Work></rdf:RDF></metadata><defs
     id="defs117393"><clipPath
       clipPathUnits="userSpaceOnUse"
       id="clipPath117405"><path
         d="M 0,600 H 600 V 0 H 0 Z"
         id="path117403"
         inkscape:connector-curvature="0" /></clipPath></defs><sodipodi:namedview
     pagecolor="#ffffff"
     bordercolor="#666666"
     borderopacity="1"
     objecttolerance="10"
     gridtolerance="10"
     guidetolerance="10"
     inkscape:pageopacity="0"
     inkscape:pageshadow="2"
     inkscape:window-width="797"
     inkscape:window-height="480"
     id="namedview117391"
     showgrid="false"
     inkscape:zoom="0.295"
     inkscape:cx="400"
     inkscape:cy="400"
     inkscape:window-x="0"
     inkscape:window-y="0"
     inkscape:window-maximized="0"
     inkscape:current-layer="g117397" /><g
     id="g117397"
     inkscape:groupmode="layer"
     inkscape:label="woman-of-revolution-publicdomainvectors.org"
     transform="matrix(1.3333333,0,0,-1.3333333,0,800)"><g
       id="g117399"><g
         id="g117401"
         clip-path="url(#clipPath117405)"><path
           d="m 481.162,298.316 c -0.182,0.409 -0.336,0.779 -0.467,1.126 l -1.634,-0.536 z"
           style="fill:#d8f890;fill-opacity:1;fill-rule:nonzero;stroke:none"
           id="path117407"
           inkscape:connector-curvature="0" /><path
           d="m 491.271,267.417 c -0.121,0.779 -0.258,1.576 -0.413,2.388 -0.257,1.364 -0.472,2.537 -0.472,2.614 0,0.076 1.832,-0.524 4.065,-1.336 3.873,-1.402 4.362,-1.465 11.087,-1.47 3.869,-0.005 7.194,0.154 7.396,0.354 0.194,0.195 0.443,1.564 0.552,3.044 l 0.19,2.69 -3.41,0.606 c -6.646,1.178 -12.499,3.187 -15.82,5.429 -5.061,3.42 -9.289,8.325 -12.046,13.963 -0.516,1.06 -0.92,1.899 -1.238,2.617 l -2.101,0.59 z"
           style="fill:#c5f5c1;fill-opacity:1;fill-rule:nonzero;stroke:none"
           id="path117409"
           inkscape:connector-curvature="0" /><path
           d="m 458.854,410.839 c 0.323,0.779 0.504,1.48 0.409,1.557 -0.097,0.076 -2.243,1.131 -4.767,2.342 -0.957,0.462 -1.831,0.918 -2.642,1.386 l 2.178,-9.391 c 2.386,0.898 4.089,2.338 4.822,4.106"
           style="fill:#ffd100;fill-opacity:1;fill-rule:nonzero;stroke:none"
           id="path117411"
           inkscape:connector-curvature="0" /><path
           d="m 480.325,300.581 c -0.318,1.193 -0.401,2.372 -0.501,4.45 -0.19,4.008 -0.085,4.866 1.002,7.872 1.565,4.331 1.53,6.621 -0.176,12.595 -0.773,2.7 -1.389,5.977 -1.389,7.365 0,2.758 -0.553,2.042 7.098,9.284 2.204,2.089 2.801,3.015 3.569,5.5 1.213,3.922 1.203,6.589 -0.037,8.163 -0.525,0.673 -1.146,1.222 -1.366,1.222 -0.228,0 -1.058,-0.936 -1.845,-2.086 -1.97,-2.866 -3.602,-3.62 -7.266,-3.391 -3.588,0.23 -4.384,0.906 -4.675,3.965 -0.305,3.12 1.182,6.43 4.103,9.164 l 2.262,2.119 5.685,-0.364 c 8.77,-0.557 13.254,-0.434 17.099,0.468 4.074,0.954 5.7,1.889 4.589,2.634 -1.078,0.725 -4.313,1.665 -11.13,3.244 -7.036,1.631 -14.269,3.764 -16.979,5.009 -2.28,1.05 -9.093,5.462 -13.635,8.835 -3.722,2.764 -7.365,6.207 -10.255,9.569 l 22.583,-97.292 z"
           style="fill:#ffd100;fill-opacity:1;fill-rule:nonzero;stroke:none"
           id="path117413"
           inkscape:connector-curvature="0" /><path
           d="m 480.695,299.442 c -0.15,0.399 -0.271,0.769 -0.37,1.139 l -1.264,-1.675 z"
           style="fill:#f9ed2d;fill-opacity:1;fill-rule:nonzero;stroke:none"
           id="path117415"
           inkscape:connector-curvature="0" /><path
           d="m 477.809,287.206 c 0.163,-0.17 0.337,-0.369 0.537,-0.609 1.688,-2.023 3.138,-6.598 3.496,-11.039 0.262,-3.316 0.168,-3.941 -1.12,-7.27 -0.784,-2.004 -1.733,-4.123 -2.119,-4.704 -0.544,-0.836 -1.212,-1.107 -3.058,-1.231 l -0.395,-0.028 -4.328,-40.49 c 0.139,0.013 0.282,0.026 0.434,0.043 11.316,1.207 18.926,6.812 22.642,16.687 1.35,3.588 1.611,9.009 0.434,9.009 -0.382,0 -0.696,-0.32 -0.696,-0.717 0,-0.882 -1.876,-2.691 -4.615,-4.451 -1.703,-1.092 -2.561,-1.321 -4.952,-1.321 -3.552,0 -5.274,0.591 -5.274,1.813 0,0.921 0.371,1.117 3.242,1.684 3.454,0.682 6.776,3.191 8.392,6.335 1.695,3.295 1.986,9.163 0.842,16.5 l -12.21,31.489 z"
           style="fill:#cbf387;fill-opacity:1;fill-rule:nonzero;stroke:none"
           id="path117417"
           inkscape:connector-curvature="0" /><path
           d="m 474.157,210.581 c 1.235,2.023 1.183,2.209 -0.611,2.209 -1.218,0 -2.736,0.319 -4.167,0.815 l -1.557,-6.368 c 3.062,0.095 4.974,1.115 6.335,3.344"
           style="fill:#9ae292;fill-opacity:1;fill-rule:nonzero;stroke:none"
           id="path117419"
           inkscape:connector-curvature="0" /><path
           d="m 401.823,349.99 c -1.87,-10.157 -2.766,-13.792 -5.348,-21.659 -0.704,-2.145 -1.276,-3.948 -1.789,-5.71 l 84.375,-23.715 -22.583,97.292 c -2.454,2.854 -4.365,5.651 -5.317,7.92 l -0.648,1.556 2.519,0.725 c 0.346,0.101 0.679,0.212 1,0.334 l -2.178,9.391 c -2.738,1.573 -4.75,3.269 -6.685,5.642 l -42.551,-67.42 c -0.227,-1.269 -0.491,-2.702 -0.795,-4.356"
           style="fill:#ffce00;fill-opacity:1;fill-rule:nonzero;stroke:none"
           id="path117421"
           inkscape:connector-curvature="0" /><path
           d="m 389.964,300.967 c -3.598,-18.888 -7.577,-38.662 -11.112,-55.245 -1.583,-7.423 -2.868,-15.965 -3.775,-24.708 l 88.73,-3.083 c -0.827,1.391 -1.547,3.09 -1.954,4.715 -0.415,1.642 0.282,1.666 3.964,0.11 0.282,-0.118 0.541,-0.223 0.786,-0.318 l -73.834,92.594 c -0.755,-3.423 -1.6,-7.729 -2.805,-14.065"
           style="fill:#f0d03c;fill-opacity:1;fill-rule:nonzero;stroke:none"
           id="path117423"
           inkscape:connector-curvature="0" /><path
           d="m 377.426,267.753 c 0.887,5.458 1.073,10.268 0.415,10.925 -0.313,0.311 -1.547,0.632 -5.233,1.202 l -9.026,-34.884 c 7.52,6.755 12.541,14.815 13.844,22.757"
           style="fill:#f0d03c;fill-opacity:1;fill-rule:nonzero;stroke:none"
           id="path117425"
           inkscape:connector-curvature="0" /><path
           d="m 473.184,262.19 -6.012,6.875 -6.001,6.874 v 2.563 c 0,3.372 1.049,5.481 3.433,6.874 2.158,1.269 6.78,2.452 10.202,2.625 1.709,0.086 2.229,0.008 3.003,-0.795 l 1.252,11.7 -84.375,23.715 c -0.688,-2.361 -1.27,-4.649 -1.917,-7.589 l 73.834,-92.594 c 1.621,-0.624 2.55,-0.75 4.219,-0.603 l 4.328,40.49 z"
           style="fill:#f6e63a;fill-opacity:1;fill-rule:nonzero;stroke:none"
           id="path117427"
           inkscape:connector-curvature="0" /><path
           d="m 428.69,493.235 c -0.829,1.724 -2.281,5.45 -3.504,9.002 -4.08,11.875 -11.102,27.332 -12.41,27.332 -0.299,0 -1.625,1.407 -2.947,3.128 -0.035,0.045 -0.072,0.094 -0.107,0.14 l -38.746,-46.604 z"
           style="fill:#fb6800;fill-opacity:1;fill-rule:nonzero;stroke:none"
           id="path117429"
           inkscape:connector-curvature="0" /><path
           d="m 374.188,210.631 71.141,-46.952 c 0.663,1.123 1.7,2.218 3.124,3.289 3.573,2.68 6.649,5.457 7.213,6.507 0.639,1.202 -0.315,5.519 -1.928,8.702 -0.711,1.408 -3.225,4.942 -5.592,7.867 -6.746,8.344 -6.458,7.752 -6.458,13.157 0,5.272 0.954,8.101 3.042,9.055 1.727,0.787 1.786,0.754 3.58,-1.943 1.459,-2.198 3.868,-4.016 5.323,-4.016 0.258,0 0.181,1.007 -0.181,2.4 -1.098,4.236 -1.307,6.874 -0.543,6.874 0.365,0 1.011,-0.72 1.436,-1.601 1.65,-3.465 7.97,-6.746 12.989,-6.742 0.167,0 0.328,0.003 0.488,0.009 l 1.557,6.368 c -1.495,0.519 -2.895,1.233 -3.751,1.985 -0.611,0.537 -1.241,1.364 -1.821,2.341 l -88.73,3.083 c -0.356,-3.449 -0.654,-6.928 -0.889,-10.383"
           style="fill:#c7df6f;fill-opacity:1;fill-rule:nonzero;stroke:none"
           id="path117431"
           inkscape:connector-curvature="0" /><path
           d="m 394.271,408.016 3.587,-8.153 c 1.976,-4.479 4.223,-10.266 4.996,-12.852 1.392,-4.666 1.402,-4.78 1.306,-14.761 -0.081,-8.474 -0.128,-10.01 -1.542,-17.904 l 42.551,67.42 c -0.699,0.856 -1.389,1.796 -2.098,2.858 -0.353,0.527 -0.683,1.054 -0.991,1.584 l -47.317,-12.029 z"
           style="fill:#feb200;fill-opacity:1;fill-rule:nonzero;stroke:none"
           id="path117433"
           inkscape:connector-curvature="0" /><path
           d="m 368.233,407.343 c 0.349,0.103 0.685,0.221 1.011,0.349 l -3.636,-0.923 c 0.767,0.078 1.595,0.271 2.625,0.574"
           style="fill:#feb200;fill-opacity:1;fill-rule:nonzero;stroke:none"
           id="path117435"
           inkscape:connector-curvature="0" /><path
           d="m 409.722,532.837 c -1.324,1.718 -3.38,4.167 -4.641,5.518 -1.292,1.395 -2.352,2.682 -2.352,2.863 0,0.845 -10.371,10.845 -13.681,13.186 -6.798,4.822 -17.12,9.545 -27.253,12.701 l 9.181,-80.872 z"
           style="fill:#f35c00;fill-opacity:1;fill-rule:nonzero;stroke:none"
           id="path117437"
           inkscape:connector-curvature="0" /><path
           d="m 346.105,154.358 c -2.097,-0.545 -4.478,-1.196 -6.626,-1.806 l 13.553,-40.832 c 1.284,1.009 2.549,2.173 3.804,3.5 2.615,2.766 6.303,9.241 7.423,13.039 0.32,1.077 0.916,2.262 1.326,2.633 0.43,0.386 2.987,0.968 6.074,1.379 11.492,1.531 30.947,7.036 46.376,13.133 9.74,3.85 12.737,5.367 20.275,10.285 1.064,0.696 1.958,1.288 2.703,1.797 l -81.59,3.073 c -4.333,-2.503 -10.721,-5.525 -13.318,-6.201"
           style="fill:#c2b266;fill-opacity:1;fill-rule:nonzero;stroke:none"
           id="path117439"
           inkscape:connector-curvature="0" /><path
           d="m 373.629,188.903 c 0.214,-9.049 0.142,-10.515 -0.616,-12.986 -1.664,-5.391 -5.214,-9.818 -11.068,-13.796 -0.695,-0.475 -1.559,-1.007 -2.522,-1.562 l 81.59,-3.073 c 2.659,1.823 3.434,2.601 3.441,3.261 0.017,1 0.312,1.977 0.875,2.932 l -71.141,46.952 c -0.511,-7.557 -0.715,-14.995 -0.559,-21.728"
           style="fill:#d3bf53;fill-opacity:1;fill-rule:nonzero;stroke:none"
           id="path117441"
           inkscape:connector-curvature="0" /><path
           d="m 438.84,435.64 c -0.156,0.987 -0.279,2.028 -0.377,3.138 l -0.401,4.522 2.28,8.22 c 2.146,7.762 2.276,8.531 2.276,13.849 0,5.215 -0.099,5.883 -1.407,9.05 -0.778,1.885 -1.904,3.95 -2.501,4.59 -1.46,1.565 -8.086,10.848 -9.675,13.563 -0.097,0.164 -0.213,0.389 -0.345,0.663 l -57.714,-7.002 z"
           style="fill:#ff8500;fill-opacity:1;fill-rule:nonzero;stroke:none"
           id="path117443"
           inkscape:connector-curvature="0" /><path
           d="m 356.265,448.758 c 7.808,0.209 8.113,0.185 11.429,-1.026 4.151,-1.518 6.149,-3.383 7.966,-7.452 1.48,-3.315 2.634,-3.893 3.474,-1.731 0.759,1.97 0.238,5.424 -1.131,7.494 -0.668,1.007 -2.628,2.968 -4.359,4.361 -4.604,3.701 -9.217,6.159 -15.038,7.687 l -4.123,-9.382 c 0.549,0.016 1.137,0.031 1.782,0.049"
           style="fill:#fe9400;fill-opacity:1;fill-rule:nonzero;stroke:none"
           id="path117445"
           inkscape:connector-curvature="0" /><path
           d="m 376.062,418.759 c 0,2.638 -0.248,3.545 -1.808,6.628 -0.998,1.96 -2.504,4.178 -3.363,4.928 -0.85,0.748 -1.551,1.568 -1.551,1.816 0,0.955 -6.465,4.204 -11.598,5.83 -2.723,0.867 -5.158,1.461 -7.201,1.777 l -1.037,-2.359 c 4.105,-0.739 8.822,-1.89 9.249,-2.318 0.183,-0.19 -3.568,-0.343 -8.338,-0.343 -0.757,0 -1.446,-0.001 -2.081,-0.003 l -9.331,-21.231 c 0.477,-1.582 1.589,-2.615 3.378,-3.15 2.429,-0.73 6.34,-0.314 9.187,0.97 l 2.406,1.082 1.846,-1.665 c 2.132,-1.928 3.296,-2.604 5.868,-3.416 1.552,-0.489 2.649,-0.668 3.92,-0.536 l 3.636,0.923 c 4.381,1.72 6.809,5.63 6.818,11.067"
           style="fill:#fe9400;fill-opacity:1;fill-rule:nonzero;stroke:none"
           id="path117447"
           inkscape:connector-curvature="0" /><path
           d="m 368.01,479.486 c 0.147,-0.408 0.285,-0.819 0.409,-1.231 0.505,-1.699 0.763,-1.956 2.252,-2.199 0.926,-0.154 2.767,-0.282 4.083,-0.282 2.754,-0.01 4.677,-0.62 5.554,-1.765 2.213,-2.901 6.936,-10.339 8.901,-14.035 3.374,-6.317 5.563,-14.665 6.331,-24.092 0.32,-3.955 0.529,-7.295 0.463,-7.424 -0.066,-0.123 -0.486,-4.78 -0.926,-10.337 l -0.314,-3.942 47.317,12.029 c -1.658,2.852 -2.664,5.771 -3.24,9.432 l -67.864,50.593 z"
           style="fill:#fe9400;fill-opacity:1;fill-rule:nonzero;stroke:none"
           id="path117449"
           inkscape:connector-curvature="0" /><path
           d="m 300.189,539.849 c 0.859,2.128 1.736,4.065 1.956,4.308 0.519,0.564 2.729,-1.546 4.413,-4.208 l 1.283,-2.032 h 4.78 c 2.624,0 4.775,-0.11 4.775,-0.249 0,-0.132 -1.025,-1.584 -2.275,-3.215 -1.59,-2.073 -2.401,-3.273 -2.534,-4.601 l 58.389,-43.619 -9.181,80.872 c -4.244,1.322 -8.458,2.371 -12.362,3.033 -3.932,0.669 -8.733,1.531 -10.668,1.918 -7.72,1.537 -28.358,1.284 -44.564,-0.544 -10.369,-1.17 -20.644,-2.885 -30.596,-5.068 l 36.351,-27.156 c 0.078,0.185 0.156,0.371 0.233,0.561"
           style="fill:#f04f00;fill-opacity:1;fill-rule:nonzero;stroke:none"
           id="path117451"
           inkscape:connector-curvature="0" /><path
           d="m 268.229,504.818 c 9.38,1.599 10.71,1.708 22.418,1.899 12.949,0.21 18.214,-0.149 32.727,-2.242 16.603,-2.385 26.754,-5.849 34.713,-11.822 2.441,-1.835 4.576,-4.014 6.312,-6.403 l 6.577,-0.017 -58.389,43.619 c -0.133,-1.331 0.415,-2.791 1.542,-5.389 1.03,-2.384 1.875,-4.527 1.875,-4.77 0,-0.826 -2.992,0.143 -6.227,2.013 l -3.214,1.86 -3.746,-2.485 c -4.441,-2.953 -5.835,-3.73 -5.815,-3.239 0.009,0.2 0.314,1.722 0.683,3.378 0.367,1.659 0.662,3.959 0.658,5.104 l -0.005,2.09 -3.683,2.314 c -3.282,2.065 -4.543,3.253 -4.008,3.792 0.1,0.096 1.623,0.306 3.377,0.459 1.757,0.156 3.512,0.447 3.903,0.643 0.347,0.178 1.226,1.775 2.029,3.666 l -36.351,27.156 c -3.694,-0.811 -7.344,-1.686 -10.937,-2.622 l 0.792,-62.325 c 4.651,1.397 8.955,2.33 14.769,3.321"
           style="fill:#f64e00;fill-opacity:1;fill-rule:nonzero;stroke:none"
           id="path117453"
           inkscape:connector-curvature="0" /><path
           d="m 349.899,235.666 c 5.129,2.617 9.748,5.794 13.683,9.33 l 9.026,34.884 c -3.246,0.501 -8.395,1.196 -16.489,2.251 -23.032,3.012 -22.965,3.002 -27.105,4.6 -2.185,0.85 -7.1,3.105 -10.926,5.019 -3.826,1.917 -8.578,4.06 -10.553,4.761 -1.755,0.623 -2.967,0.976 -4.772,1.059 l 45.296,-62.807 c 0.577,0.271 1.203,0.578 1.84,0.903"
           style="fill:#fb9b00;fill-opacity:1;fill-rule:nonzero;stroke:none"
           id="path117455"
           inkscape:connector-curvature="0" /><path
           d="m 305.637,353.521 c 1.817,-0.268 4.026,-1.508 11.593,-6.474 5.133,-3.378 10.519,-6.585 11.955,-7.123 4.546,-1.698 6.86,-1.197 7.653,1.659 0.896,3.26 -0.959,7.955 -5.83,14.723 -1.97,2.744 -2.796,3.426 -6.837,5.697 -4.233,2.376 -8.471,4.507 -12.615,6.358 l -9.728,-14.02 c 1.584,-0.387 3.042,-0.704 3.809,-0.82"
           style="fill:#ffa300;fill-opacity:1;fill-rule:nonzero;stroke:none"
           id="path117457"
           inkscape:connector-curvature="0" /><path
           d="m 308.117,327.902 c 4.313,0.724 5.101,1.092 5.101,2.39 0,1.976 -2.1,3.44 -7.362,5.128 -6.752,2.165 -9.067,2.563 -15.425,2.493 l -7.469,-10.765 c 3.819,-0.249 22.276,0.273 25.155,0.754"
           style="fill:#ffa300;fill-opacity:1;fill-rule:nonzero;stroke:none"
           id="path117459"
           inkscape:connector-curvature="0" /><path
           d="m 337.801,433.406 c -10.629,-3.549 -16.651,-8.349 -16.684,-13.297 -0.014,-1.96 0.902,-4.58 2.029,-5.791 1.403,-1.508 4.802,-2.996 7.623,-3.33 l 2.241,-0.267 1.08,2.662 c 0.734,1.813 1.535,2.939 2.508,3.531 0.793,0.482 1.594,0.877 1.784,0.877 0.192,0 0.345,-1.011 0.345,-2.257 0,-0.766 0.093,-1.447 0.276,-2.05 l 9.331,21.231 c -6.338,-0.019 -7.107,-0.169 -10.533,-1.309"
           style="fill:#fd7700;fill-opacity:1;fill-rule:nonzero;stroke:none"
           id="path117461"
           inkscape:connector-curvature="0" /><path
           d="m 370.976,486.233 -6.577,0.017 c 1.539,-2.118 2.764,-4.402 3.611,-6.764 z"
           style="fill:#fd7700;fill-opacity:1;fill-rule:nonzero;stroke:none"
           id="path117463"
           inkscape:connector-curvature="0" /><path
           d="m 313.061,458.151 c -0.364,-0.347 0.342,-15.504 0.877,-18.858 l 0.229,-1.46 9.617,3.173 c 5.287,1.745 12.947,4.15 17.032,5.352 6.733,1.981 7.45,2.17 13.667,2.351 l 4.123,9.382 c -5.849,1.536 -12.918,2.133 -22.428,2.112 -9.899,-0.024 -22.126,-1.107 -23.117,-2.052"
           style="fill:#fd7700;fill-opacity:1;fill-rule:nonzero;stroke:none"
           id="path117465"
           inkscape:connector-curvature="0" /><path
           d="m 344.327,439.25 -1.13,-0.916 3.911,-0.563 c 0.745,-0.107 1.558,-0.241 2.396,-0.392 l 1.037,2.359 c -3.045,0.468 -5.226,0.316 -6.214,-0.488"
           style="fill:#fd7700;fill-opacity:1;fill-rule:nonzero;stroke:none"
           id="path117467"
           inkscape:connector-curvature="0" /><path
           d="m 301.854,226.187 c 6.148,1.855 7.113,1.989 23.653,3.338 5.014,0.407 7.937,0.941 12.833,2.333 3.488,0.993 6.637,1.804 6.989,1.804 0.249,0 1.347,0.449 2.73,1.101 l -45.296,62.807 c -2.368,0.11 -5.758,-0.247 -12.736,-1.069 -6.004,-0.708 -13.743,-0.743 -19.716,-0.144 l -27.581,-68.854 54.494,-2.79 c 1.261,0.443 2.746,0.905 4.63,1.474"
           style="fill:#f56500;fill-opacity:1;fill-rule:nonzero;stroke:none"
           id="path117469"
           inkscape:connector-curvature="0" /><path
           d="m 333.097,150.595 c -0.414,-0.215 -0.896,-1.183 -1.078,-2.142 -0.176,-0.965 -0.535,-2.744 -0.788,-3.956 h -0.004 l -0.463,-2.203 -3.095,0.038 c -0.869,0.012 -2.259,0.166 -3.917,0.413 l -20.143,-29.434 c 10.153,0.261 15.82,-0.964 23.057,-4.193 4.355,-1.941 8.807,-2.729 13.645,-2.413 4.646,0.298 8.778,1.916 12.721,5.015 l -13.553,40.832 c -3.249,-0.92 -5.968,-1.745 -6.382,-1.957"
           style="fill:#bc5024;fill-opacity:1;fill-rule:nonzero;stroke:none"
           id="path117471"
           inkscape:connector-curvature="0" /><path
           d="m 287.06,218.748 c 4.589,3.448 6.371,4.627 10.164,5.965 l -54.494,2.79 32.988,-23.238 c 2.059,6.026 5.136,9.825 11.342,14.483"
           style="fill:#e07000;fill-opacity:1;fill-rule:nonzero;stroke:none"
           id="path117473"
           inkscape:connector-curvature="0" /><path
           d="m 278.625,372.117 c 2.462,0.944 3.244,0.972 6.183,0.257 l 2.433,-0.592 v -2.232 c 0,-3.12 -0.272,-3.592 -2.824,-4.885 -1.556,-0.792 -2.986,-1.136 -4.694,-1.126 -3.483,0.024 -4.075,0.491 -4.075,3.234 0,3.186 0.721,4.485 2.977,5.344 m 18.104,-0.706 c 1.136,0 3.097,-0.22 4.362,-0.492 2.246,-0.482 2.823,-1.111 2.847,-3.101 0.005,-0.715 -6.068,-0.749 -7.996,-0.043 -1.053,0.386 -1.278,0.745 -1.278,2.052 0,1.565 0.028,1.584 2.065,1.584 m -14.354,-44.196 c 0.111,-0.027 0.313,-0.048 0.587,-0.067 l 7.469,10.765 c -0.283,-0.004 -0.569,-0.006 -0.867,-0.012 -7.571,-0.125 -10.17,0.563 -12.704,3.368 -1.794,1.99 -2.505,4.07 -2.667,7.83 -0.099,2.283 0.025,2.613 1.36,3.81 2.124,1.9 5.934,2.835 12.852,3.149 5.591,0.259 6.355,0.191 10.505,-0.958 0.935,-0.259 1.95,-0.522 2.918,-0.759 l 9.728,14.02 c -6.193,2.768 -12.169,4.907 -17.574,6.255 -4.747,1.183 -5.529,1.251 -10.911,0.949 -9.167,-0.509 -16.292,-2.677 -21.565,-6.582 l 20.038,-41.532 c 0.393,-0.12 0.685,-0.203 0.831,-0.236"
           style="fill:#ff8800;fill-opacity:1;fill-rule:nonzero;stroke:none"
           id="path117475"
           inkscape:connector-curvature="0" /><path
           d="m 262.157,383.07 c 0.472,-0.758 3.663,-1.197 5.801,-0.796 0.901,0.166 2.586,1.03 3.74,1.912 1.851,1.412 2.433,1.603 4.833,1.603 2.973,0 3.296,0.282 3.296,2.873 0,1.364 0.048,1.392 1.736,1.135 0.956,-0.149 3.732,-0.406 6.165,-0.578 5.224,-0.362 6.698,0.163 8.626,3.078 0.667,1.011 1.449,1.841 1.736,1.836 1.23,-0.014 2.604,-0.611 2.604,-1.13 0,-0.31 0.993,-1.211 2.204,-2.009 1.212,-0.796 4.174,-3.229 6.583,-5.415 2.835,-2.566 4.757,-3.964 5.449,-3.964 0.993,0 1.069,0.191 1.069,2.696 0,2.061 -0.238,3.024 -1.039,4.107 -0.574,0.777 -1.605,2.643 -2.28,4.145 -0.392,0.867 -0.992,2.188 -1.609,3.54 l -50.821,-5.276 c 0.431,-3.097 1.262,-6.706 1.907,-7.757"
           style="fill:#ff8800;fill-opacity:1;fill-rule:nonzero;stroke:none"
           id="path117477"
           inkscape:connector-curvature="0" /><path
           d="m 269.046,421.235 c 0.476,0.483 -0.864,5.315 -2.243,8.073 -2.58,5.167 -7.298,8.829 -14.223,11.027 l -0.487,-20.998 c 1.887,0.219 4.262,0.459 7.254,0.744 5.19,0.491 9.555,1.012 9.699,1.154"
           style="fill:#fd7400;fill-opacity:1;fill-rule:nonzero;stroke:none"
           id="path117479"
           inkscape:connector-curvature="0" /><path
           d="m 255.707,414.986 c 0,0.134 -1.577,0.242 -3.709,0.267 l -0.065,-2.814 c 0.028,0.009 0.061,0.019 0.086,0.028 1.922,0.678 3.688,1.88 3.688,2.519"
           style="fill:#fd7400;fill-opacity:1;fill-rule:nonzero;stroke:none"
           id="path117481"
           inkscape:connector-curvature="0" /><path
           d="m 311.071,396.103 c -0.454,1.001 -0.919,2.019 -1.313,2.882 -2.833,6.212 -4.312,7.185 -13.047,8.644 -3.159,0.526 -3.458,0.693 -7.509,4.194 l -4.223,3.65 h -2.819 c -5.4,0 -9.007,-3.664 -11.826,-12.018 l -1.002,-2.976 -4.608,-1.447 -4.609,-1.44 -0.143,-2.996 c -0.043,-0.91 0.071,-2.28 0.278,-3.769 z"
           style="fill:#fd7400;fill-opacity:1;fill-rule:nonzero;stroke:none"
           id="path117483"
           inkscape:connector-curvature="0" /><path
           d="m 259.647,447.05 c 4.371,-2.147 9.981,-6.268 12.757,-9.36 0.639,-0.711 2.319,-3.536 3.731,-6.274 1.412,-2.738 2.776,-5.047 3.034,-5.133 0.253,-0.086 0.858,0.134 1.346,0.491 0.863,0.631 0.792,1.111 -2.476,17.199 -1.847,9.103 -3.555,17.055 -3.788,17.671 -0.492,1.297 -0.521,1.306 -9.208,2.542 -4.268,0.608 -8.242,0.922 -11.889,0.951 l -0.353,-15.263 c 2.035,-0.596 4.148,-1.496 6.846,-2.824"
           style="fill:#fd7400;fill-opacity:1;fill-rule:nonzero;stroke:none"
           id="path117485"
           inkscape:connector-curvature="0" /><path
           d="m 308.729,145.996 c -2.904,0.939 -7.073,2.979 -11.123,5.327 L 246.93,138.18 260.598,112.043 c 1.081,-0.02 2.233,-0.041 3.467,-0.063 13.835,-0.238 19.494,-0.152 25.046,0.358 5.781,0.535 10.489,0.87 14.498,0.973 l 20.143,29.434 c -4.699,0.697 -11.574,2.143 -15.023,3.251"
           style="fill:#c22c00;fill-opacity:1;fill-rule:nonzero;stroke:none"
           id="path117487"
           inkscape:connector-curvature="0" /><path
           d="m 287.804,157.98 c -5.171,4.384 -11.173,13.411 -12.327,18.543 -1.97,8.774 -2.29,18.277 -0.817,24.125 0.326,1.295 0.675,2.494 1.058,3.617 l -32.988,23.238 4.2,-89.323 50.676,13.143 c -3.73,2.164 -7.359,4.589 -9.802,6.657"
           style="fill:#d54200;fill-opacity:1;fill-rule:nonzero;stroke:none"
           id="path117489"
           inkscape:connector-curvature="0" /><path
           d="m 243.646,450.918 c 3.758,0.013 6.383,-0.233 9.155,-1.044 l 0.353,15.263 c -3.964,0.031 -7.539,-0.278 -10.662,-0.931 -1.532,-0.322 -2.991,-0.666 -4.401,-1.033 l -10.89,-16.333 c 0.597,0.313 1.181,0.6 1.733,0.845 5.524,2.442 9.064,3.219 14.712,3.233"
           style="fill:#fa6200;fill-opacity:1;fill-rule:nonzero;stroke:none"
           id="path117491"
           inkscape:connector-curvature="0" /><path
           d="m 201.111,402.291 c 1.851,3.001 9.427,7.151 13.058,7.151 0.815,0 3.029,-0.409 4.928,-0.915 5.457,-1.451 10.572,-1.111 16.669,1.106 1.955,0.716 4.975,1.279 8.625,1.612 3.011,0.271 6.353,0.805 7.542,1.194 l 0.065,2.814 c -0.436,0.006 -0.894,0.007 -1.367,0.005 -2.853,-0.009 -5.286,0.191 -5.553,0.453 -0.258,0.262 -0.353,0.93 -0.21,1.489 0.262,0.998 1.482,1.472 7.225,2.137 l 0.487,20.998 c -3.139,0.997 -6.731,1.694 -10.785,2.092 -5.008,0.496 -5.734,0.453 -11.831,-0.668 -3.152,-0.582 -5.39,-0.991 -6.984,-1.251 l -27.572,-41.359 2.804,-0.462 c 1.255,1.388 2.423,2.831 2.899,3.604"
           style="fill:#fa6200;fill-opacity:1;fill-rule:nonzero;stroke:none"
           id="path117493"
           inkscape:connector-curvature="0" /><path
           d="m 237.42,495.594 c 1.06,0.498 2.18,0.967 3.445,1.457 5.027,1.947 8.919,3.341 12.595,4.446 l -0.792,62.325 c -3.523,-0.918 -6.992,-1.897 -10.397,-2.929 l -35.663,-48.059 z"
           style="fill:#f03600;fill-opacity:1;fill-rule:nonzero;stroke:none"
           id="path117495"
           inkscape:connector-curvature="0" /><path
           d="m 239.258,341.961 c -1.703,1.789 -5.849,4.842 -8.883,6.541 -1.637,0.916 -3.177,2.037 -3.421,2.495 -0.244,0.453 -1.145,1.246 -2.003,1.751 -0.855,0.505 -2.067,1.374 -2.677,1.932 -0.872,0.791 -4.447,3.674 -7.563,6.124 l -28.263,-22.417 58.933,-7.582 c -1.617,5.796 -3.025,7.898 -6.123,11.156"
           style="fill:#ff7200;fill-opacity:1;fill-rule:nonzero;stroke:none"
           id="path117497"
           inkscape:connector-curvature="0" /><path
           d="m 265.377,328.742 c 6.144,1.636 7.332,1.645 11.932,0.085 1.627,-0.549 3.252,-1.077 4.235,-1.376 l -20.038,41.532 c -2.164,-1.602 -4.018,-3.494 -5.57,-5.688 -3.368,-4.765 -3.426,-4.957 -4.169,-15.17 -0.901,-12.255 -1.001,-16.374 0.55,-18.212 l 11.679,-1.502 c 0.455,0.097 0.914,0.206 1.381,0.331"
           style="fill:#ff7200;fill-opacity:1;fill-rule:nonzero;stroke:none"
           id="path117499"
           inkscape:connector-curvature="0" /><path
           d="m 252.317,329.913 c 0.548,-0.649 1.301,-1.015 2.297,-1.353 2.572,-0.876 5.78,-0.924 9.382,-0.149 z"
           style="fill:#fc6300;fill-opacity:1;fill-rule:nonzero;stroke:none"
           id="path117501"
           inkscape:connector-curvature="0" /><path
           d="m 267.3,296.74 c -3.931,0.625 -10.138,3.659 -12.499,6.116 -3.321,3.454 -4.585,6.583 -6.789,16.774 -1.056,4.887 -1.867,8.441 -2.631,11.175 l -58.933,7.582 56.282,-110.884 27.581,68.854 c -1.067,0.108 -2.078,0.236 -3.011,0.383"
           style="fill:#fc6300;fill-opacity:1;fill-rule:nonzero;stroke:none"
           id="path117503"
           inkscape:connector-curvature="0" /><path
           d="m 192.099,125.359 c -1.706,-3.499 -3.931,-7.894 -6.061,-11.996 l 27.95,-10.909 8.095,0.215 9.336,4.012 c 13.194,5.673 11.939,5.679 29.179,5.362 L 246.93,138.18 Z"
           style="fill:#be0006;fill-opacity:1;fill-rule:nonzero;stroke:none"
           id="path117505"
           inkscape:connector-curvature="0" /><path
           d="m 180.397,102.869 c -0.668,-1.145 -1.211,-2.677 -1.211,-3.396 l -0.011,-1.318 3.135,0.305 c 4.041,0.392 19.684,3.02 20.29,3.406 0.257,0.163 4.741,0.411 9.97,0.55 l 1.418,0.038 -27.95,10.909 c -2.217,-4.27 -4.33,-8.218 -5.641,-10.494"
           style="fill:#b0001f;fill-opacity:1;fill-rule:nonzero;stroke:none"
           id="path117507"
           inkscape:connector-curvature="0" /><path
           d="m 186.448,338.387 -0.281,-126.565 56.563,15.681 z"
           style="fill:#f23700;fill-opacity:1;fill-rule:nonzero;stroke:none"
           id="path117509"
           inkscape:connector-curvature="0" /><path
           d="m 186.167,211.822 60.763,-73.642 -4.2,89.323 z"
           style="fill:#db2f00;fill-opacity:1;fill-rule:nonzero;stroke:none"
           id="path117511"
           inkscape:connector-curvature="0" /><path
           d="m 212.103,362.833 c -1.002,0.764 -2.892,2.958 -4.199,4.867 -1.317,1.917 -3.883,5.361 -5.705,7.655 -1.823,2.296 -3.856,4.905 -4.518,5.797 -1.431,1.935 -2.983,6.468 -3.448,10.031 l -7.785,-52.796 28.263,22.417 c -0.94,0.739 -1.838,1.438 -2.608,2.029"
           style="fill:#fa6800;fill-opacity:1;fill-rule:nonzero;stroke:none"
           id="path117513"
           inkscape:connector-curvature="0" /><path
           d="m 196.913,397.306 c 0.427,0.434 0.868,0.904 1.299,1.381 l -2.804,0.462 -0.587,-3.981 z"
           style="fill:#fa6800;fill-opacity:1;fill-rule:nonzero;stroke:none"
           id="path117515"
           inkscape:connector-curvature="0" /><path
           d="m 242.271,560.893 c -17.405,-5.281 -33.098,-12.008 -45.587,-19.715 l 9.924,-28.344 z"
           style="fill:#e42300;fill-opacity:1;fill-rule:nonzero;stroke:none"
           id="path117517"
           inkscape:connector-curvature="0" /><path
           d="m 219.067,440.834 c 0,0.886 4.334,4.01 8.134,6.006 l 10.89,16.333 c -7.23,-1.879 -13.034,-4.423 -19.061,-8.299 -2.91,-1.875 -5.716,-3.42 -6.221,-3.431 -0.792,-0.024 -0.978,0.387 -1.269,2.759 -0.616,5.018 0.52,12.05 2.767,17.131 2.385,5.396 7.9,13.511 10.735,15.796 5.787,4.672 8.732,6.752 12.378,8.465 l -30.812,17.24 -11.2,-113.685 27.572,41.359 c -3.68,-0.6 -3.913,-0.4 -3.913,0.326"
           style="fill:#f64d00;fill-opacity:1;fill-rule:nonzero;stroke:none"
           id="path117519"
           inkscape:connector-curvature="0" /><path
           d="m 177.325,132.223 c 1.069,1.914 2.013,2.948 3.282,3.592 2.385,1.221 3.597,1.173 3.873,-0.134 1.718,-8.109 1.957,-8.925 2.672,-9.064 0.544,-0.104 1.656,1.57 4.083,6.168 2.853,5.396 3.483,6.293 4.338,6.169 0.782,-0.105 1.03,-0.506 1.14,-1.836 0.109,-1.322 -0.621,-3.316 -3.312,-9.046 -0.383,-0.814 -0.822,-1.729 -1.302,-2.713 l 54.831,12.821 -60.763,73.642 -1.953,-10.504 c 0.595,-0.469 1.179,-0.94 1.74,-1.414 l 3.297,-2.776 3.831,-0.177 3.831,-0.177 2.194,-2.375 c 1.766,-1.928 2.29,-2.901 2.725,-5.056 1.221,-6.088 0.267,-11.293 -3.04,-16.565 -4.202,-6.708 -6.311,-9.208 -19.827,-23.529 -1.892,-2.005 -3.792,-4.184 -5.631,-6.434 l -3.917,-21.06 c 2.809,2.452 5.242,5.697 7.908,10.468"
           style="fill:#ca1500;fill-opacity:1;fill-rule:nonzero;stroke:none"
           id="path117521"
           inkscape:connector-curvature="0" /><path
           d="m 169.417,121.755 3.917,21.06 c -4.75,-5.811 -9.098,-12.11 -11.876,-17.191 l 6.66,-4.929 c 0.443,0.337 0.875,0.69 1.299,1.06"
           style="fill:#c80b00;fill-opacity:1;fill-rule:nonzero;stroke:none"
           id="path117523"
           inkscape:connector-curvature="0" /><path
           d="m 176.898,206.502 c 2.572,-1.641 5.053,-3.395 7.316,-5.184 l 1.953,10.504 z"
           style="fill:#c80b00;fill-opacity:1;fill-rule:nonzero;stroke:none"
           id="path117525"
           inkscape:connector-curvature="0" /><path
           d="m 143.281,228.352 c -0.382,-1.527 -2.08,-1.579 -3.788,-0.11 -0.921,0.793 -1.25,1.531 -1.298,2.897 l -0.062,1.831 h 2.066 c 1.961,0 2.104,-0.091 2.724,-1.718 0.358,-0.949 0.52,-2.252 0.358,-2.9 m -12.513,40.909 c -0.43,-8.377 -1.207,-14.189 -2.009,-14.99 -1.126,-1.121 -1.937,-0.715 -3.101,1.556 -1.245,2.432 -1.436,6.851 -0.515,12.003 0.448,2.509 0.992,4.908 1.211,5.333 0.22,0.42 1.374,1.093 2.567,1.498 l 2.161,0.739 z m -18.851,50.681 c 0.009,-0.275 -0.058,-0.723 -0.17,-1.419 -0.172,-1.088 -1.441,-4.346 -2.815,-7.242 -1.622,-3.406 -2.758,-5.262 -3.234,-5.262 -0.844,0 -0.864,0.357 -0.278,5.453 0.668,5.825 1.747,7.518 5.535,8.687 0.325,0.101 0.552,0.166 0.705,0.156 l -5.296,7.712 -3.601,-18.859 c 0.035,-0.286 0.07,-0.566 0.101,-0.835 0.353,-2.93 0.872,-5.949 1.164,-6.704 0.291,-0.753 0.839,-3.572 1.212,-6.258 0.811,-5.802 1.306,-7.777 2.299,-9.184 1.197,-1.708 1.604,-1.211 1.604,1.947 0,2.561 0.151,3.092 1.029,3.711 1.474,1.031 1.584,0.965 2.405,-1.45 0.934,-2.744 0.934,-5.519 0,-10.934 -0.94,-5.392 -0.649,-8.483 1.091,-11.618 1.107,-1.989 1.437,-3.348 1.886,-7.757 0.878,-8.653 3.062,-15.514 6.554,-20.594 1.899,-2.758 2.634,-2.724 3.03,0.143 0.253,1.812 0.539,2.366 1.493,2.796 0.654,0.299 1.231,0.481 1.288,0.409 0.058,-0.076 0.362,-2.432 0.683,-5.238 0.992,-8.815 2.451,-15.221 4.632,-20.146 l 5.676,-0.603 c -0.199,1.512 -0.129,1.497 1.012,1.066 0.668,-0.259 1.785,-0.835 2.476,-1.288 0.1,-0.066 0.203,-0.126 0.312,-0.183 l 6.44,-0.686 c 0.527,-0.007 1.096,-0.013 1.716,-0.019 6.318,-0.059 7.143,-0.082 10.288,-1.258 l 25.013,-2.663 z"
           style="fill:#e21c00;fill-opacity:1;fill-rule:nonzero;stroke:none"
           id="path117527"
           inkscape:connector-curvature="0" /><path
           d="m 106.364,328.027 5.296,-7.712 c 0.172,-0.01 0.249,-0.116 0.257,-0.373 l 74.25,-108.12 0.281,126.565 z"
           style="fill:#f24600;fill-opacity:1;fill-rule:nonzero;stroke:none"
           id="path117529"
           inkscape:connector-curvature="0" /><path
           d="m 138.768,404.944 c 1.612,-0.215 1.918,-0.424 1.918,-1.321 0,-0.602 -0.535,-1.49 -1.222,-2.023 -0.758,-0.602 -1.903,-0.964 -3.015,-0.964 -1.784,0 -1.794,0.01 -1.794,1.865 0,2.223 1.06,2.853 4.113,2.443 m 56.64,-5.795 -59.855,36.24 c 0.158,-2.509 0.44,-4.721 0.915,-7.718 0.916,-5.792 1.012,-7.18 0.525,-7.771 -0.997,-1.198 -5.438,-0.906 -10.381,0.677 -2.395,0.764 -4.475,1.389 -4.628,1.389 -0.152,0 -0.414,-0.745 -0.587,-1.656 l -0.309,-1.66 -2.309,0.315 c -2.023,0.277 -2.281,0.219 -2.142,-0.478 0.1,-0.486 1.168,-1.173 2.709,-1.74 4.943,-1.818 6.522,-3.726 5.539,-6.694 -0.286,-0.859 -0.968,-1.851 -1.522,-2.199 -1.507,-0.949 -7.532,-2.188 -15.619,-3.306 l 1.758,-3.403 c 0.304,-10e-4 0.61,-0.002 0.918,-0.003 9.246,-0.024 16.812,-0.201 16.803,-0.392 -0.024,-1.497 -0.801,-2.523 -2.567,-3.378 -1.384,-0.668 -2.528,-1.756 -3.683,-3.487 -1.479,-2.237 -1.951,-2.599 -4.236,-3.262 -0.474,-0.138 -1.022,-0.283 -1.584,-0.42 l 5.212,-10.093 z"
           style="fill:#e94c00;fill-opacity:1;fill-rule:nonzero;stroke:none"
           id="path117531"
           inkscape:connector-curvature="0" /><path
           d="m 196.684,541.178 c -0.261,-0.161 -0.523,-0.323 -0.782,-0.484 -6.365,-3.991 -11.705,-7.627 -16.465,-11.279 l 27.171,-16.581 z"
           style="fill:#db1300;fill-opacity:1;fill-rule:nonzero;stroke:none"
           id="path117533"
           inkscape:connector-curvature="0" /><path
           d="m 179.437,529.415 c -8.371,-6.424 -14.942,-12.901 -22.102,-21.462 -5.185,-6.207 -7.291,-8.924 -9.072,-11.979 l 58.345,16.86 z"
           style="fill:#dd1c00;fill-opacity:1;fill-rule:nonzero;stroke:none"
           id="path117535"
           inkscape:connector-curvature="0" /><path
           d="m 206.608,512.834 -58.345,-16.86 c -0.481,-0.826 -0.939,-1.678 -1.428,-2.63 -8.058,-15.704 -11.421,-30.127 -11.464,-49.114 -0.01,-3.827 0.031,-6.467 0.182,-8.841 l 59.855,-36.24 z"
           style="fill:#ed4100;fill-opacity:1;fill-rule:nonzero;stroke:none"
           id="path117537"
           inkscape:connector-curvature="0" /><path
           d="m 194.233,391.183 c -0.014,0.108 -0.027,0.215 -0.039,0.322 l -0.31,2.705 0.937,0.958 0.587,3.981 -75.043,-19.039 66.083,-41.723 z"
           style="fill:#f55e00;fill-opacity:1;fill-rule:nonzero;stroke:none"
           id="path117539"
           inkscape:connector-curvature="0" /><path
           d="m 120.365,380.11 -14.001,-52.083 80.084,10.36 z"
           style="fill:#f15700;fill-opacity:1;fill-rule:nonzero;stroke:none"
           id="path117541"
           inkscape:connector-curvature="0" /><path
           d="m 149.15,215.762 -6.44,0.686 c 0.924,-0.474 2.316,-0.624 6.44,-0.686"
           style="fill:#cf1300;fill-opacity:1;fill-rule:nonzero;stroke:none"
           id="path117543"
           inkscape:connector-curvature="0" /><path
           d="m 135.342,213.486 c 1.374,-2.155 7.09,-7.915 7.471,-7.527 0.096,0.09 -0.678,2.107 -1.722,4.475 -1.044,2.366 -2.008,5.118 -2.142,6.126 -0.014,0.104 -0.027,0.2 -0.039,0.293 l -5.676,0.603 c 0.639,-1.441 1.339,-2.758 2.108,-3.97"
           style="fill:#cf1300;fill-opacity:1;fill-rule:nonzero;stroke:none"
           id="path117545"
           inkscape:connector-curvature="0" /><path
           d="m 161.154,214.485 c 0.401,-0.15 0.836,-0.318 1.329,-0.507 4.528,-1.747 9.622,-4.414 14.415,-7.476 l 9.269,5.32 z"
           style="fill:#cf1300;fill-opacity:1;fill-rule:nonzero;stroke:none"
           id="path117547"
           inkscape:connector-curvature="0" /><path
           d="m 161.868,116.813 c 0.71,0.272 2.986,1.636 5.061,3.029 0.406,0.273 0.801,0.559 1.189,0.853 l -6.66,4.929 c -1.257,-2.299 -2.194,-4.349 -2.701,-5.99 -0.506,-1.623 -0.916,-3.03 -0.916,-3.13 0,-0.383 2.776,-0.163 4.027,0.309"
           style="fill:#b40012;fill-opacity:1;fill-rule:nonzero;stroke:none"
           id="path117549"
           inkscape:connector-curvature="0" /><path
           d="m 95.001,403.073 c -3.625,-0.347 -4.613,-0.977 -2.466,-1.584 0.568,-0.161 8.112,-0.308 16.967,-0.344 l -1.758,3.403 c -3.866,-0.534 -8.201,-1.041 -12.743,-1.475"
           style="fill:#e24b00;fill-opacity:1;fill-rule:nonzero;stroke:none"
           id="path117551"
           inkscape:connector-curvature="0" /><path
           d="m 120.365,380.11 -5.212,10.093 c -1.112,-0.273 -2.277,-0.52 -3.024,-0.63 l -2.033,-0.305 1.154,-1.475 c 0.735,-0.935 2.004,-1.75 3.497,-2.247 1.708,-0.568 2.275,-0.968 2.08,-1.464 -0.142,-0.377 -0.262,-0.974 -0.262,-1.317 0,-0.811 -4.513,-4.046 -8.11,-5.821 -3.573,-1.756 -7.194,-2.346 -11.035,-1.803 -0.791,0.11 -1.595,0.245 -2.267,0.375 l 5.443,-23.054 c 0.797,0.534 1.467,1.067 1.695,1.412 2.204,3.32 8.635,8.491 9.494,7.632 0.525,-0.529 -0.477,-3.134 -1.527,-3.959 -1.67,-1.317 -2.853,-4.417 -3.659,-9.593 -0.511,-3.302 -1.231,-5.712 -2.538,-8.545 -0.087,-0.189 -0.165,-0.379 -0.249,-0.568 l 2.552,-10.814 z"
           style="fill:#e24b00;fill-opacity:1;fill-rule:nonzero;stroke:none"
           id="path117553"
           inkscape:connector-curvature="0" /><path
           d="m 93.632,375.871 c -0.725,0.282 -0.773,0.063 -0.486,-2.237 0.3,-2.414 0.258,-2.568 -0.769,-2.844 -0.601,-0.161 -1.989,-0.295 -3.091,-0.3 l -1.994,-0.005 0.144,-1.736 c 0.124,-1.499 0.381,-1.852 1.878,-2.558 0.96,-0.448 1.742,-0.992 1.742,-1.212 0,-0.218 -0.845,-0.982 -1.884,-1.703 -3.564,-2.471 -3.349,-2.799 2.156,-3.359 2.686,-0.271 5.181,-0.738 5.553,-1.048 0.783,-0.649 0.897,-4.07 0.21,-6.446 -0.248,-0.873 -0.372,-1.669 -0.276,-1.764 0.257,-0.258 2.253,0.777 3.781,1.803 l -5.443,23.054 c -0.722,0.137 -1.291,0.269 -1.521,0.355"
           style="fill:#e24d00;fill-opacity:1;fill-rule:nonzero;stroke:none"
           id="path117555"
           inkscape:connector-curvature="0" /><path
           d="m 103.812,338.841 c -2.952,-6.673 -3.722,-13.864 -2.284,-21.463 0.355,-1.856 0.883,-5.377 1.235,-8.21 l 3.601,18.859 z"
           style="fill:#e24d00;fill-opacity:1;fill-rule:nonzero;stroke:none"
           id="path117557"
           inkscape:connector-curvature="0" /></g></g></g></svg>
