<svg width="30" height="33" viewBox="0 0 30 33" fill="none" xmlns="http://www.w3.org/2000/svg">
<path d="M29.3806 24.3799C29.2692 24.3074 28.4304 23.7185 27.5905 21.9368C26.0482 18.6651 25.7244 14.0563 25.7244 10.7661C25.7244 10.7518 25.7241 10.7376 25.7236 10.7234C25.7068 6.37495 23.539 2.81419 19.3913 0.944582C18.5596 0.569683 18.0629 0.408061 17.1698 0.221685C16.3224 0.135112 15.8472 0.0865734 14.9997 1.78888e-10C14.1481 -0.000867202 13.6642 0.048536 12.8304 0.221469C11.937 0.406747 10.6087 0.944434 10.6087 0.944434C6.87865 2.63172 4.27557 6.39937 4.27557 10.7661C4.27557 14.0563 3.95182 18.665 2.40943 21.9368C1.56963 23.7184 0.730864 24.3073 0.619344 24.3799C0.149719 24.5977 -0.0818363 25.1009 0.0262028 25.6109C0.135279 26.1259 0.615568 26.4809 1.14007 26.4809H9.28165C9.32712 29.6086 11.874 32.1392 15 32.1392C18.1261 32.1392 20.6729 29.6086 20.7184 26.4809H28.86C29.3844 26.4809 29.8648 26.1259 29.9739 25.6109C30.0817 25.1009 29.8503 24.5977 29.3806 24.3799ZM15 29.909C13.0989 29.909 11.5483 28.3789 11.5032 26.481H18.4968C18.4518 28.3788 16.9011 29.909 15 29.909ZM19.4727 24.2507H3.67147C3.86363 23.9505 4.0592 23.6107 4.25358 23.2266C5.74228 20.2844 6.49715 16.092 6.49715 10.7661C6.49715 6.05937 10.3114 2.2302 14.9997 2.2302C19.6879 2.2302 23.5022 6.05937 23.5022 10.7698C23.5022 10.7835 23.5024 10.7972 23.5029 10.8109C23.5071 16.1154 24.2619 20.2927 25.7465 23.2266C25.9409 23.6108 26.1365 23.9505 26.3286 24.2507H19.4727Z" fill="white"/>
</svg>
