<svg width="33" height="34" viewBox="0 0 33 34" fill="none" xmlns="http://www.w3.org/2000/svg">
<path d="M26.3167 4.90845H29.1583V4.90845C30.7277 4.90845 32 6.1807 32 7.75011V27.5501C32 30.3115 29.7614 32.5501 27 32.5501H6C3.23858 32.5501 1 30.3115 1 27.5501V9.90845C1 7.14702 3.23858 4.90845 6 4.90845H16.8875" stroke="#FFFCEB" stroke-width="2"/>
<path d="M24.5748 9.80395C25.4798 9.24532 26.0064 8.6379 26.4477 7.82689C26.8889 7.01588 27.1105 6.1036 27.0904 5.18053C27.0703 4.25746 26.8092 3.35569 26.3331 2.56465C25.8569 1.77362 25.1822 1.12082 24.3759 0.671004C23.5696 0.221187 22.6597 -0.0100143 21.7365 0.000332639C20.8133 0.0106795 19.9088 0.262215 19.1128 0.72999C18.3167 1.19776 17.6569 1.86552 17.1985 2.66703C16.7402 3.46853 16.4994 4.37593 16.5 5.29922C16.4976 6.18341 16.7197 7.05375 17.1456 7.82861L17.69 8.64284C18.1868 9.25366 18.8133 9.74615 19.5242 10.0845C20.2351 10.4229 21.0124 10.5986 21.7997 10.5989C22.4372 10.5979 22.9716 10.5145 23.6642 10.252C24.0348 10.1116 24.2376 10.0121 24.5748 9.80395ZM21.7997 9.63532C20.9421 9.63532 20.1038 9.38101 19.3907 8.90456C18.6776 8.4281 18.1219 7.75089 17.7937 6.95857C17.4655 6.16625 17.3796 5.29441 17.5469 4.45329C17.7142 3.61217 18.1272 2.83955 18.7336 2.23313C19.34 1.62672 20.1126 1.21374 20.9538 1.04643C21.7949 0.879124 22.6667 0.964993 23.4591 1.29318C24.2514 1.62137 24.9286 2.17714 25.405 2.89021C25.8815 3.60328 26.1358 4.44162 26.1358 5.29922C26.134 6.44868 25.6766 7.55054 24.8638 8.36333C24.051 9.17613 22.9492 9.63354 21.7997 9.63532Z" fill="white"/>
<path d="M21.7999 3.85391C21.5338 3.85391 21.3181 4.06962 21.3181 4.3357C21.3181 4.60179 21.5338 4.81749 21.7999 4.81749H22.2817C22.537 4.81825 22.7816 4.92002 22.9622 5.10056C23.1427 5.2811 23.2445 5.52575 23.2452 5.78107V6.74465C23.2445 6.99997 23.1427 7.24462 22.9622 7.42516C22.8966 7.4907 22.8226 7.54586 22.7428 7.58957C22.5095 7.71723 22.2817 7.92374 22.2817 8.18966C22.2817 8.45574 22.0659 8.67181 21.7999 8.67181C21.5338 8.67181 21.3181 8.4561 21.3181 8.19002C21.3181 7.92393 21.1024 7.70823 20.8363 7.70823C20.5702 7.70823 20.3545 7.49252 20.3545 7.22644C20.3545 6.96035 20.5702 6.74465 20.8363 6.74465H21.7999C22.0659 6.74465 22.2817 6.52894 22.2817 6.26286C22.2817 5.99678 22.0659 5.78107 21.7999 5.78107H21.3181C21.0627 5.78031 20.8181 5.67854 20.6376 5.498C20.457 5.31746 20.3553 5.07281 20.3545 4.81749V3.85391C20.3553 3.59859 20.457 3.35394 20.6376 3.1734C20.7031 3.10786 20.7771 3.05271 20.857 3.00899C21.0902 2.88134 21.3181 2.67483 21.3181 2.40891C21.3181 2.14282 21.5338 1.92676 21.7999 1.92676C22.0659 1.92676 22.2817 2.14246 22.2817 2.40855C22.2817 2.67463 22.4974 2.89034 22.7634 2.89034C23.0295 2.89034 23.2452 3.10604 23.2452 3.37213C23.2452 3.63821 23.0295 3.85391 22.7634 3.85391H21.7999Z" fill="white"/>
<path d="M25.0249 14.9834L21.2842 18.9167L19.7325 17.2851L15.5207 21.7137L12.3619 18.3922L8.23324 22.7334" stroke="white" stroke-linejoin="round"/>
</svg>
