<svg width="246" height="247" viewBox="0 0 246 247" fill="none" xmlns="http://www.w3.org/2000/svg">
<path fill-rule="evenodd" clip-rule="evenodd" d="M86.992 31.0844C70.9786 14.8066 53.7127 -1.00179 47.9752 0.0496918C41.0478 1.31923 33.4867 33.9552 28.5085 60.1144C10.8463 76.2017 0.184341 97.0684 0.184341 119.87C0.184341 170.753 53.2814 212.002 118.78 212.002C184.279 212.002 237.376 170.753 237.376 119.87C237.376 96.8011 226.462 75.7128 208.428 59.5506C203.448 33.4887 195.946 1.31012 189.068 0.0496918C183.342 -0.999824 166.129 14.7475 150.141 30.9931C140.152 28.8707 129.636 27.7374 118.78 27.7374C107.769 27.7374 97.1087 28.9032 86.992 31.0844Z" fill="#EDEDED"/>
<g style="mix-blend-mode:multiply">
<path fill-rule="evenodd" clip-rule="evenodd" d="M87.2282 31.0334L84.9195 61.0462L107.178 44.352L121.647 77.7404L135.002 44.352L153.922 61.0462L150.067 30.9774C140.1 28.865 129.609 27.7373 118.779 27.7373C107.854 27.7373 97.2743 28.8849 87.2282 31.0334Z" fill="#EBEBEB"/>
</g>
<g style="mix-blend-mode:multiply">
<path fill-rule="evenodd" clip-rule="evenodd" d="M233.8 97.3303L201.026 110.267L237.075 126.476C237.274 124.294 237.375 122.091 237.375 119.87C237.375 112.094 236.135 104.543 233.8 97.3303ZM236.323 132.195L199.806 134.645L230.085 151.745C233.041 145.517 235.156 138.972 236.323 132.195ZM227.357 156.986L193.988 162.911L212.575 176.258C218.456 170.362 223.437 163.897 227.357 156.986Z" fill="#E4E4E4"/>
</g>
<g style="mix-blend-mode:multiply">
<path fill-rule="evenodd" clip-rule="evenodd" d="M24.0942 175.356L41.4234 162.911L10.443 157.411C14.1239 163.812 18.7171 169.826 24.0942 175.356ZM7.02534 150.785L35.6061 134.645L1.2607 132.341C2.37176 138.719 4.32312 144.891 7.02534 150.785ZM0.404866 125.546L34.3855 110.267L3.51872 98.0833C1.33875 105.068 0.183456 112.364 0.183456 119.87C0.183456 121.776 0.257973 123.669 0.404866 125.546Z" fill="#E4E4E4"/>
</g>
<path d="M129.453 138.588C129.453 142.377 125.064 145.449 119.651 145.449C114.238 145.449 109.85 142.377 109.85 138.588C109.85 134.798 114.238 130.747 119.651 130.747C125.064 130.747 129.453 134.798 129.453 138.588Z" fill="#0F0E0F"/>
<path d="M119.651 135.647V149.369C119.651 153.7 116.141 157.21 111.81 157.21H109.36C106.383 157.21 103.969 154.797 103.969 151.819V151.819" stroke="#1C1B1C" stroke-width="2.94039" stroke-linecap="round" stroke-linejoin="round"/>
<path d="M119.652 135.647V149.369C119.652 153.7 123.162 157.21 127.493 157.21H129.943C132.92 157.21 135.334 154.797 135.334 151.819V151.819" stroke="#1C1B1C" stroke-width="2.94039" stroke-linecap="round" stroke-linejoin="round"/>
<circle cx="68.0858" cy="109.281" r="23.7954" fill="white"/>
<mask id="mask0_324_1866" style="mask-type:alpha" maskUnits="userSpaceOnUse" x="44" y="85" width="48" height="49">
<circle cx="68.0858" cy="109.281" r="23.7954" fill="#FEDE77"/>
</mask>
<g mask="url(#mask0_324_1866)">
<circle cx="73.79" cy="111.129" r="17.8071" fill="#1C1B1C"/>
</g>
<circle r="23.7954" transform="matrix(-1 0 0 1 168.531 109.281)" fill="white"/>
<mask id="mask1_324_1866" style="mask-type:alpha" maskUnits="userSpaceOnUse" x="144" y="85" width="49" height="49">
<circle r="23.7954" transform="matrix(-1 0 0 1 168.531 109.281)" fill="white"/>
</mask>
<g mask="url(#mask1_324_1866)">
<circle r="17.8071" transform="matrix(-1 0 0 1 162.826 111.129)" fill="#0F0E0F"/>
</g>
<g style="mix-blend-mode:multiply">
<path d="M38.146 52.3115C41.04 37.9895 43.8418 28.3573 49.6432 13.5436C50.0858 12.4136 51.4474 11.9573 52.4776 12.5986C63.717 19.5949 69.8994 24.9547 78.4239 34.1318C79.4112 35.1947 78.9234 36.9224 77.5303 37.3268C62.7834 41.6076 53.6202 44.4557 41.4252 54.2402C39.9683 55.4091 37.776 54.1424 38.146 52.3115Z" fill="#EBEBEB"/>
<path d="M196.923 50.9175C195.445 36.2357 194.041 27.5067 187.942 12.4818C187.488 11.3623 186.128 10.9269 185.108 11.5753C174.918 18.0569 169.102 22.8685 159.559 31.7908C158.452 32.8262 158.894 34.6741 160.347 35.1076C174.824 39.4279 181.676 42.502 193.642 52.6084C195.001 53.7563 197.101 52.6877 196.923 50.9175Z" fill="#EBEBEB"/>
</g>
<circle cx="55.9829" cy="151.195" r="13.3553" fill="#FFCEB9"/>
<circle cx="180.633" cy="151.195" r="13.3553" fill="#FFCEB9"/>
<path d="M221.5 60.5127L224.506 47.4832C225.401 43.6038 222.454 39.9004 218.473 39.9004C214.491 39.9004 211.545 43.6038 212.44 47.4832L215.445 60.5127L216.913 67.1681L220.494 66.9355L221.5 60.5127Z" fill="white"/>
<path d="M224.571 69.6384L237.601 72.6438C241.48 73.5387 245.183 70.5921 245.183 66.6108C245.183 62.6294 241.48 59.683 237.601 60.5777L224.571 63.5831L218.224 64.8872V67.8856L224.571 69.6384Z" fill="white"/>
<path d="M212.374 69.6384L199.345 72.644C195.466 73.5389 191.762 70.5923 191.762 66.611C191.762 62.6296 195.466 59.6832 199.345 60.5779L212.374 63.5833L216.642 64.6143L217.456 68.476L212.374 69.6384Z" fill="white"/>
<path d="M214.815 57.7804L209.213 48.8196C207.103 45.4436 202.401 44.9083 199.585 47.7235C196.77 50.5387 197.306 55.2409 200.682 57.3513L209.642 62.9532L215.982 67.1681L218.473 64.5665L214.815 57.7804Z" fill="white"/>
<path d="M227.303 62.9532L236.264 57.3515C239.64 55.2411 240.175 50.5389 237.36 47.7237C234.545 44.9085 229.843 45.4438 227.732 48.8198L222.131 57.7806L217.456 65.285L219.82 68.5847L227.303 62.9532Z" fill="white"/>
<path d="M227.303 70.2687L236.264 75.8704C239.64 77.9808 240.175 82.683 237.36 85.4982C234.545 88.3134 229.843 87.7781 227.732 84.4021L222.131 75.4413L217.732 69.483L221.313 66.1797L227.303 70.2687Z" fill="white"/>
<path d="M214.815 75.4415L209.213 84.4024C207.103 87.7783 202.401 88.3136 199.585 85.4984C196.77 82.6832 197.306 77.981 200.682 75.8706L209.642 70.2689L217.456 65.4966L219.461 67.1785L214.815 75.4415Z" fill="white"/>
<path d="M221.903 73.0818L224.861 85.9033C225.741 89.7209 222.842 93.3653 218.924 93.3653C215.006 93.3653 212.107 89.7209 212.987 85.9033L215.945 73.0818L217.082 66.134L219.966 65.819L221.903 73.0818Z" fill="white"/>
<path d="M218.473 72.9009C221.947 72.9009 224.762 70.0852 224.762 66.6118C224.762 63.1385 221.947 60.3228 218.473 60.3228C215 60.3228 212.184 63.1385 212.184 66.6118C212.184 70.0852 215 72.9009 218.473 72.9009Z" fill="#FED402"/>
<g style="mix-blend-mode:multiply">
<path fill-rule="evenodd" clip-rule="evenodd" d="M216.882 72.6978C217.39 72.8305 217.924 72.9012 218.474 72.9012C221.948 72.9012 224.763 70.0854 224.763 66.6121C224.763 63.1387 221.948 60.323 218.474 60.323C218.113 60.323 217.759 60.3535 217.414 60.412C220.116 61.1172 222.11 63.5746 222.11 66.4977C222.11 69.6097 219.85 72.1937 216.882 72.6978Z" fill="#FED402" fill-opacity="0.5"/>
</g>
<path fill-rule="evenodd" clip-rule="evenodd" d="M103.212 213.645C107.759 213.645 111.889 212.067 115.175 210.216C114.322 214.89 114.393 219.089 114.46 223.056L114.475 223.932C114.573 230.235 114.5 236.072 110.935 243.304C110.317 244.558 110.832 246.076 112.086 246.694C113.34 247.312 114.858 246.797 115.476 245.543C119.598 237.181 119.638 230.325 119.537 223.853L119.525 223.107C119.44 217.946 119.36 213.048 121.052 207.377C124.163 212.371 125.605 217.279 127.052 222.227L127.091 222.359C128.773 228.111 130.521 234.086 135.299 239.446C136.229 240.49 137.829 240.582 138.873 239.651C139.917 238.721 140.009 237.121 139.078 236.077C135.125 231.641 133.635 226.698 131.911 220.805L131.868 220.656C131.04 217.827 130.16 214.818 128.892 211.7C131.562 212.837 134.602 213.645 137.855 213.645C143.117 213.645 148.005 212.623 151.672 210.858C155.159 209.179 158.374 206.37 158.374 202.453C158.374 198.535 155.159 195.727 151.672 194.048C148.005 192.282 143.117 191.261 137.855 191.261C130.246 191.261 123.8 195.682 120.534 198.402C117.267 195.682 110.822 191.261 103.212 191.261C97.9505 191.261 93.0623 192.282 89.3952 194.048C85.9081 195.727 82.6935 198.535 82.6935 202.453C82.6935 206.37 85.9081 209.179 89.3952 210.858C93.0623 212.623 97.9505 213.645 103.212 213.645ZM91.5917 198.61C88.5687 200.065 87.7566 201.587 87.7566 202.453C87.7566 203.319 88.5687 204.84 91.5917 206.296C94.4348 207.665 98.5403 208.582 103.212 208.582C109.14 208.582 114.491 204.959 117.369 202.549L117.426 202.405C114.563 199.995 109.18 196.324 103.212 196.324C98.5403 196.324 94.4348 197.241 91.5917 198.61ZM124.214 202.972C124.062 202.753 123.907 202.533 123.749 202.314C126.639 199.904 131.962 196.324 137.855 196.324C142.527 196.324 146.633 197.241 149.476 198.61C152.499 200.065 153.311 201.587 153.311 202.453C153.311 203.319 152.499 204.84 149.476 206.296C146.633 207.665 142.527 208.582 137.855 208.582C132.265 208.582 127.188 205.36 124.214 202.972Z" fill="#ED653B"/>
</svg>
