<svg width="37" height="37" viewBox="0 0 37 37" fill="none" xmlns="http://www.w3.org/2000/svg">
<path d="M32.375 20.4356C28.0903 22.17 23.4067 23.1251 18.5 23.1251C13.5933 23.1251 8.90975 22.17 4.625 20.4356M24.6667 9.25016V6.16683C24.6667 4.46395 23.2862 3.0835 21.5833 3.0835H15.4167C13.7138 3.0835 12.3333 4.46395 12.3333 6.16683V9.25016M18.5 18.5002H18.5154M7.70833 30.8335H29.2917C30.9945 30.8335 32.375 29.453 32.375 27.7502V12.3335C32.375 10.6306 30.9945 9.25016 29.2917 9.25016H7.70833C6.00546 9.25016 4.625 10.6306 4.625 12.3335V27.7502C4.625 29.453 6.00546 30.8335 7.70833 30.8335Z" stroke="#242424" stroke-width="2" stroke-linecap="round" stroke-linejoin="round"/>
</svg>
