<svg width="19" height="19" viewBox="0 0 19 19" fill="none" xmlns="http://www.w3.org/2000/svg">
<path d="M15.7586 10.5707C13.673 11.4162 11.3933 11.8819 9.00493 11.8819C6.61659 11.8819 4.33684 11.4162 2.25122 10.5707M12.0066 5.11765V3.61449C12.0066 2.78432 11.3346 2.11133 10.5058 2.11133H7.50411C6.67522 2.11133 6.00328 2.78432 6.00328 3.61449V5.11765M9.00493 9.62713H9.01243M3.75204 15.6398H14.2578C15.0867 15.6398 15.7586 14.9668 15.7586 14.1366V6.62081C15.7586 5.79064 15.0867 5.11765 14.2578 5.11765H3.75204C2.92316 5.11765 2.25122 5.79064 2.25122 6.62081V14.1366C2.25122 14.9668 2.92316 15.6398 3.75204 15.6398Z" stroke="#4D4D4D" stroke-width="0.901897" stroke-linecap="round" stroke-linejoin="round"/>
</svg>
