<svg width="181" height="156" viewBox="0 0 181 156" fill="none" xmlns="http://www.w3.org/2000/svg">
<path d="M108.039 16.0612C108.007 13.866 109.169 12.0482 110.635 12.0009C112.1 11.9537 113.313 13.6949 113.345 15.8901L113.389 19.0053L114.094 16.1045C114.595 14.0412 116.118 12.9774 117.495 13.7284C118.872 14.4793 119.582 16.7607 119.081 18.824L116.661 28.7862C116.16 30.8495 114.637 31.9133 113.26 31.1623C112.819 30.9219 112.446 30.5246 112.16 30.0278C111.788 30.3466 111.36 30.5347 110.901 30.5495C110.525 30.5616 110.166 30.4561 109.839 30.2556C109.595 31.3769 109.021 32.3244 108.224 32.7592C106.847 33.5101 105.324 32.4463 104.823 30.383L102.403 20.4208C101.901 18.3575 102.612 16.0761 103.989 15.3252C105.366 14.5742 106.889 15.638 107.39 17.7013L108.105 20.6437L108.039 16.0612Z" fill="#FAFAFA"/>
<path d="M57.2419 95C57.2419 124.271 80.9709 148 110.242 148C139.513 148 163.242 124.271 163.242 95V81H57.2419V95Z" fill="#A97337"/>
<g style="mix-blend-mode:multiply">
<path fill-rule="evenodd" clip-rule="evenodd" d="M103.802 128.126C103.802 128.657 103.662 129.182 103.39 129.672C103.117 130.163 102.718 130.608 102.215 130.983C101.712 131.359 101.114 131.656 100.457 131.859C99.799 132.062 99.0942 132.167 98.3824 132.167C97.6706 132.167 96.9659 132.062 96.3083 131.859C95.6507 131.656 95.0532 131.359 94.5499 130.983C94.0466 130.608 93.6474 130.163 93.375 129.672C93.1026 129.182 92.9624 128.657 92.9624 128.126L98.3824 128.126H103.802ZM114.642 128.134C114.641 128.662 114.501 129.185 114.23 129.672C113.958 130.163 113.558 130.608 113.055 130.983C112.552 131.359 111.954 131.656 111.297 131.859C110.639 132.062 109.934 132.167 109.222 132.167C108.511 132.167 107.806 132.062 107.148 131.859C106.491 131.656 105.893 131.359 105.39 130.983C104.887 130.608 104.487 130.163 104.215 129.672C103.943 129.182 103.802 128.657 103.802 128.126L109.222 128.126L114.642 128.126L114.642 128.126H120.062H125.482C125.482 128.657 125.342 129.182 125.07 129.672C124.798 130.163 124.398 130.608 123.895 130.983C123.392 131.359 122.794 131.656 122.137 131.859C121.479 132.062 120.774 132.167 120.062 132.167C119.351 132.167 118.646 132.062 117.988 131.859C117.331 131.656 116.733 131.359 116.23 130.983C115.727 130.608 115.327 130.163 115.055 129.672C114.784 129.185 114.644 128.662 114.642 128.134Z" fill="#4B2807" fill-opacity="0.5"/>
</g>
<g style="mix-blend-mode:multiply">
<path fill-rule="evenodd" clip-rule="evenodd" d="M103.802 119.236C103.802 119.749 103.662 120.257 103.39 120.731C103.117 121.205 102.718 121.635 102.215 121.998C101.712 122.361 101.114 122.648 100.457 122.845C99.799 123.041 99.0942 123.142 98.3824 123.142C97.6706 123.142 96.9659 123.041 96.3083 122.845C95.6507 122.648 95.0532 122.361 94.5499 121.998C94.0466 121.635 93.6474 121.205 93.375 120.731C93.1026 120.257 92.9624 119.749 92.9624 119.236L98.3824 119.236H103.802ZM114.642 119.244C114.641 119.754 114.501 120.259 114.23 120.731C113.958 121.205 113.558 121.635 113.055 121.998C112.552 122.361 111.954 122.648 111.297 122.845C110.639 123.041 109.934 123.142 109.222 123.142C108.511 123.142 107.806 123.041 107.148 122.845C106.491 122.648 105.893 122.361 105.39 121.998C104.887 121.635 104.487 121.205 104.215 120.731C103.943 120.257 103.802 119.749 103.802 119.236L109.222 119.236L114.642 119.236L114.642 119.236H120.062H125.482C125.482 119.749 125.342 120.257 125.07 120.731C124.798 121.205 124.398 121.635 123.895 121.998C123.392 122.361 122.794 122.648 122.137 122.845C121.479 123.041 120.774 123.142 120.062 123.142C119.351 123.142 118.646 123.041 117.988 122.845C117.331 122.648 116.733 122.361 116.23 121.998C115.727 121.635 115.327 121.205 115.055 120.731C114.784 120.259 114.644 119.754 114.642 119.244Z" fill="#4B2807" fill-opacity="0.5"/>
</g>
<g style="mix-blend-mode:multiply">
<path fill-rule="evenodd" clip-rule="evenodd" d="M103.08 137.016V137.016L109.764 137.016H116.449C116.449 138.338 115.745 139.606 114.491 140.54C113.238 141.475 111.537 142 109.764 142C107.992 142 106.291 141.475 105.038 140.54C103.786 139.607 103.082 138.342 103.08 137.022C103.079 137.675 102.906 138.321 102.571 138.923C102.235 139.528 101.743 140.077 101.122 140.54C100.501 141.003 99.7643 141.37 98.9532 141.621C98.1422 141.871 97.273 142 96.3951 142C95.5173 142 94.648 141.871 93.837 141.621C93.026 141.37 92.2891 141.003 91.6683 140.54C91.0476 140.077 90.5552 139.528 90.2193 138.923C89.8834 138.319 89.7104 137.671 89.7104 137.016L96.3951 137.016H103.08ZM129.31 138.923C129.646 138.319 129.819 137.671 129.819 137.016H123.134L116.449 137.016C116.449 137.671 116.622 138.319 116.958 138.923C117.294 139.528 117.786 140.077 118.407 140.54C119.028 141.003 119.765 141.37 120.576 141.621C121.387 141.871 122.256 142 123.134 142C124.012 142 124.881 141.871 125.692 141.621C126.503 141.37 127.24 141.003 127.861 140.54C128.481 140.077 128.974 139.528 129.31 138.923Z" fill="#4B2807" fill-opacity="0.5"/>
</g>
<path fill-rule="evenodd" clip-rule="evenodd" d="M73.3939 81H57.2419V95C57.2419 115.914 69.3561 133.999 86.9503 142.621C92.2237 135.865 95.4401 126.872 95.4401 117C95.4401 100.28 86.2134 86.0819 73.3939 81ZM146.135 81H163.242V95C163.242 116.188 150.809 134.471 132.842 142.954C127.412 136.162 124.089 127.035 124.089 117C124.089 100.28 133.316 86.0819 146.135 81Z" fill="#62401A"/>
<path d="M109.742 25.9417C79.079 25.9417 54.1211 48.8783 53.2647 77.477C53.2496 77.7035 53.2419 77.9319 53.2419 78.1619V103.332C53.2419 109.306 58.3994 114.149 64.7614 114.149C71.1234 114.149 76.2808 109.306 76.2808 103.332V93.8533L76.2808 103.847C76.2808 109.536 81.1926 114.149 87.2517 114.149C93.3107 114.149 98.2225 109.536 98.2225 103.847L98.2225 93.8533V103.332C98.2225 109.306 103.38 114.149 109.742 114.149C116.104 114.149 121.261 109.306 121.261 103.332L121.261 103.847C121.261 109.536 126.173 114.149 132.232 114.149C138.291 114.149 143.203 109.536 143.203 103.847V103.354C143.216 109.318 148.368 114.149 154.723 114.149C161.085 114.149 166.242 109.306 166.242 103.332V78.1619C166.242 77.9319 166.234 77.7035 166.219 77.477C165.363 48.8783 140.405 25.9417 109.742 25.9417Z" fill="#DBDBDB"/>
<path fill-rule="evenodd" clip-rule="evenodd" d="M109.742 21.1619C78.5379 21.1619 53.2419 46.4578 53.2419 77.6619V89.0735L53.2419 97.8497C53.2419 104.212 58.3994 109.369 64.7614 109.369C71.1234 109.369 76.2808 104.212 76.2808 97.8497V89.0735L76.2808 98.3982C76.2808 104.457 81.1926 109.369 87.2517 109.369C93.3107 109.369 98.2225 104.457 98.2225 98.3982L98.2226 89.0735V97.8497C98.2226 104.212 103.38 109.369 109.742 109.369C116.093 109.369 121.244 104.229 121.261 97.8825V98.3982C121.261 104.457 126.173 109.369 132.232 109.369C138.291 109.369 143.203 104.457 143.203 98.3982V89.0735L143.203 97.8497C143.203 104.212 148.361 109.369 154.723 109.369C161.085 109.369 166.242 104.212 166.242 97.8497L166.242 89.0735L166.242 80.5194L166.242 77.6619C166.242 46.4578 140.946 21.1619 109.742 21.1619Z" fill="#FAFAFA"/>
<path d="M112.284 107.97C111.853 108.16 111.363 108.26 110.865 108.26H109.572C109.074 108.26 108.585 108.16 108.154 107.97L97.5545 103.312C95.5683 102.439 93.1096 103.63 93.2546 105.372C93.6503 110.125 93.6424 113.873 93.248 118.627C93.1036 120.368 95.5597 121.555 97.5438 120.683L108.568 115.838C108.999 115.648 109.489 115.549 109.987 115.549H110.451C110.949 115.549 111.438 115.648 111.87 115.838L122.948 120.707C124.921 121.574 127.367 120.404 127.237 118.672C126.879 113.884 126.862 110.122 127.223 105.337C127.354 103.601 124.903 102.424 122.926 103.293L112.284 107.97Z" fill="#FFCEB9"/>
<path d="M96.2669 81.3895C94.2437 79.6857 94.4017 76.5223 96.5848 75.0286L108.853 66.6346C110.279 65.6592 112.169 65.7091 113.541 66.7584L124.5 75.1384C126.46 76.6376 126.609 79.5371 124.812 81.2286L113.836 91.5589C112.357 92.9505 110.071 93.0136 108.518 91.7058L96.2669 81.3895Z" fill="#FFD500"/>
<ellipse cx="104.742" cy="79.3636" rx="1.5" ry="1.36364" fill="#512E0C"/>
<ellipse cx="116.483" cy="79.3636" rx="1.5" ry="1.36364" fill="#512E0C"/>
<path d="M4.25512 28.7398L38.7671 71.7621L41.4704 70.0469L4.25512 28.7398Z" fill="black" stroke="black" stroke-width="2" stroke-linecap="round" stroke-linejoin="round"/>
<rect x="28.4189" y="75.1086" width="23.0388" height="46.3284" rx="11.5194" transform="rotate(-40.2959 28.4189 75.1086)" fill="#FAFAFA"/>
<circle cx="84.2419" cy="64" r="12" fill="#FFD500"/>
<circle cx="84.2419" cy="64" r="8" fill="#323232"/>
<circle cx="87.2419" cy="61.6667" r="3" fill="white"/>
<circle cx="82.2419" cy="67.3333" r="2" fill="white"/>
<circle cx="136.242" cy="64" r="12" fill="#FFD500"/>
<circle cx="136.242" cy="64" r="8" fill="#323232"/>
<circle cx="139.242" cy="61.6667" r="3" fill="white"/>
<circle cx="134.242" cy="67.3333" r="2" fill="white"/>
<ellipse cx="76.2419" cy="81.9092" rx="6" ry="4" fill="#FFCEB9"/>
<ellipse cx="144.242" cy="81.9092" rx="6" ry="4" fill="#FFCEB9"/>
<path d="M147.819 39.9395L148.888 35.5529C149.206 34.2468 148.158 33 146.742 33C145.326 33 144.278 34.2468 144.596 35.5529L145.665 39.9395L146.187 42.1802L147.461 42.1019L147.819 39.9395Z" fill="#FFE591"/>
<path d="M148.911 43.0119L153.545 44.0237C154.925 44.325 156.242 43.333 156.242 41.9926C156.242 40.6522 154.925 39.6602 153.545 39.9614L148.911 40.9732L146.653 41.4123V42.4218L148.911 43.0119Z" fill="#FFE591"/>
<path d="M144.573 43.0119L139.939 44.0238C138.559 44.3251 137.242 43.333 137.242 41.9926C137.242 40.6522 138.559 39.6603 139.939 39.9615L144.573 40.9733L146.091 41.3204L146.38 42.6205L144.573 43.0119Z" fill="#FFE591"/>
<path d="M145.441 39.0197L143.449 36.0028C142.698 34.8662 141.026 34.686 140.024 35.6338C139.023 36.5816 139.214 38.1647 140.414 38.8752L143.601 40.7612L145.856 42.1802L146.742 41.3043L145.441 39.0197Z" fill="#FFE591"/>
<path d="M149.883 40.7612L153.07 38.8752C154.27 38.1647 154.461 36.5817 153.459 35.6339C152.458 34.6861 150.786 34.8663 150.035 36.0029L148.043 39.0197L146.38 41.5462L147.221 42.6571L149.883 40.7612Z" fill="#FFE591"/>
<path d="M149.883 43.2241L153.07 45.11C154.27 45.8205 154.461 47.4036 153.459 48.3514C152.458 49.2992 150.786 49.119 150.035 47.9824L148.043 44.9655L146.479 42.9596L147.752 41.8474L149.883 43.2241Z" fill="#FFE591"/>
<path d="M145.441 44.9656L143.449 47.9824C142.698 49.119 141.026 49.2992 140.024 48.3514C139.023 47.4037 139.214 45.8206 140.414 45.1101L143.601 43.2241L146.38 41.6175L147.093 42.1837L145.441 44.9656Z" fill="#FFE591"/>
<path d="M147.962 44.1711L149.014 48.4878C149.327 49.773 148.296 51 146.902 51C145.509 51 144.478 49.773 144.791 48.4878L145.843 44.1711L146.247 41.8321L147.273 41.726L147.962 44.1711Z" fill="#FFE591"/>
<path d="M146.742 44.1104C147.978 44.1104 148.979 43.1624 148.979 41.9931C148.979 40.8237 147.978 39.8757 146.742 39.8757C145.507 39.8757 144.505 40.8237 144.505 41.9931C144.505 43.1624 145.507 44.1104 146.742 44.1104Z" fill="#FFD500"/>
<g style="mix-blend-mode:multiply">
<path fill-rule="evenodd" clip-rule="evenodd" d="M146.176 44.042C146.357 44.0866 146.547 44.1104 146.742 44.1104C147.978 44.1104 148.979 43.1624 148.979 41.9931C148.979 40.8237 147.978 39.8757 146.742 39.8757C146.614 39.8757 146.488 39.886 146.365 39.9057C147.326 40.1431 148.036 40.9704 148.036 41.9546C148.036 43.0023 147.232 43.8723 146.176 44.042Z" fill="#FED402" fill-opacity="0.5"/>
</g>
<path d="M132.591 24.2527L133.94 18.4039C134.342 16.6624 133.019 15 131.232 15C129.445 15 128.122 16.6624 128.524 18.4039L129.873 24.2527L130.532 27.2403L132.14 27.1358L132.591 24.2527Z" fill="#FFE591"/>
<path d="M133.97 28.3492L139.818 29.6982C141.56 30.1 143.222 28.7773 143.222 26.9901C143.222 25.2029 141.56 23.8803 139.818 24.2819L133.97 25.631L131.12 26.2164V27.5623L133.97 28.3492Z" fill="#FFE591"/>
<path d="M128.495 28.3492L122.646 29.6983C120.904 30.1001 119.242 28.7774 119.242 26.9902C119.242 25.203 120.904 23.8804 122.646 24.282L128.495 25.6311L130.41 26.0939L130.776 27.8274L128.495 28.3492Z" fill="#FFE591"/>
<path d="M129.59 23.0262L127.076 19.0037C126.128 17.4883 124.017 17.248 122.754 18.5117C121.49 19.7755 121.73 21.8862 123.246 22.8336L127.268 25.3483L130.114 27.2403L131.232 26.0724L129.59 23.0262Z" fill="#FFE591"/>
<path d="M135.196 25.3483L139.219 22.8337C140.734 21.8863 140.974 19.7756 139.711 18.5118C138.447 17.2481 136.336 17.4884 135.389 19.0038L132.874 23.0263L130.776 26.3949L131.837 27.8762L135.196 25.3483Z" fill="#FFE591"/>
<path d="M135.196 28.6321L139.219 31.1467C140.734 32.094 140.974 34.2048 139.711 35.4685C138.447 36.7322 136.336 36.4919 135.389 34.9765L132.874 30.954L130.9 28.2794L132.507 26.7966L135.196 28.6321Z" fill="#FFE591"/>
<path d="M129.59 30.9541L127.076 34.9766C126.128 36.492 124.017 36.7323 122.754 35.4686C121.49 34.2049 121.73 32.0941 123.246 31.1468L127.268 28.6322L130.776 26.4899L131.676 27.2449L129.59 30.9541Z" fill="#FFE591"/>
<path d="M132.772 29.8949L134.1 35.6504C134.495 37.364 133.193 39 131.435 39C129.676 39 128.374 37.364 128.77 35.6504L130.097 29.8949L130.608 26.7761L131.902 26.6347L132.772 29.8949Z" fill="#FFE591"/>
<path d="M131.233 29.8137C132.792 29.8137 134.056 28.5498 134.056 26.9906C134.056 25.4314 132.792 24.1675 131.233 24.1675C129.673 24.1675 128.409 25.4314 128.409 26.9906C128.409 28.5498 129.673 29.8137 131.233 29.8137Z" fill="#FFD500"/>
<g style="mix-blend-mode:multiply">
<path fill-rule="evenodd" clip-rule="evenodd" d="M130.518 29.7225C130.746 29.782 130.986 29.8137 131.233 29.8137C132.792 29.8137 134.056 28.5498 134.056 26.9906C134.056 25.4314 132.792 24.1675 131.233 24.1675C131.07 24.1675 130.911 24.1812 130.757 24.2074C131.97 24.5239 132.865 25.6271 132.865 26.9393C132.865 28.3362 131.85 29.4962 130.518 29.7225Z" fill="#FED402" fill-opacity="0.5"/>
</g>
<path d="M100.706 65.7857C100.706 78.1805 90.1894 88.3214 77.0991 88.3214C64.0087 88.3214 53.4919 78.1805 53.4919 65.7857C53.4919 53.3909 64.0087 43.25 77.0991 43.25C90.1894 43.25 100.706 53.3909 100.706 65.7857Z" stroke="#323232" stroke-width="2.5"/>
<path d="M166.992 65.7857C166.992 78.1805 156.475 88.3214 143.385 88.3214C130.294 88.3214 119.778 78.1805 119.778 65.7857C119.778 53.3909 130.294 43.25 143.385 43.25C156.475 43.25 166.992 53.3909 166.992 65.7857Z" stroke="#323232" stroke-width="2.5"/>
<path d="M100.852 64.0382C107.925 62.8335 112.077 62.8552 119.633 64.0382V68.4285C112.417 67.3306 108.303 67.3151 100.852 68.4285V64.0382Z" fill="#242424"/>
</svg>
