<svg width="27" height="30" viewBox="0 0 27 30" fill="none" xmlns="http://www.w3.org/2000/svg">
<mask id="path-1-inside-1_769_2551" fill="white">
<path d="M26.1338 15.864C26.1338 14.5626 26.1338 13.9119 25.9789 13.3043C25.8416 12.7657 25.6155 12.2538 25.3099 11.7895C24.9651 11.2658 24.4841 10.8275 23.5223 9.95095L18.1666 5.07034C16.2078 3.28534 15.2285 2.39285 14.123 2.06775C13.1499 1.78155 12.1127 1.79811 11.1492 2.11523C10.0547 2.47546 9.10428 3.39877 7.20352 5.24539L2.42545 9.88737C1.53086 10.7565 1.08357 11.191 0.763435 11.7018C0.479634 12.1546 0.270251 12.6499 0.143255 13.169C9.88748e-08 13.7545 1.3969e-07 14.3781 2.21321e-07 15.6253L8.13286e-07 24.6701C8.33334e-07 24.9764 8.43359e-07 25.1296 0.00671326 25.259C0.139379 27.8167 2.18329 29.8606 4.741 29.9933C4.87042 30 5.02358 30 5.32991 30H6.36152C8.73541 30 10.6598 28.0756 10.6598 25.7017V23.8104C10.6598 22.4811 11.7375 21.4034 13.0669 21.4034C14.3963 21.4034 15.4739 22.4811 15.4739 23.8104V25.7017C15.4739 28.0756 17.3983 30 19.7722 30H20.8038C21.1102 30 21.2633 30 21.3928 29.9933C23.9505 29.8606 25.9944 27.8167 26.127 25.259C26.1338 25.1296 26.1338 24.9764 26.1338 24.6701V15.864Z"/>
</mask>
<path d="M26.1338 15.864C26.1338 14.5626 26.1338 13.9119 25.9789 13.3043C25.8416 12.7657 25.6155 12.2538 25.3099 11.7895C24.9651 11.2658 24.4841 10.8275 23.5223 9.95095L18.1666 5.07034C16.2078 3.28534 15.2285 2.39285 14.123 2.06775C13.1499 1.78155 12.1127 1.79811 11.1492 2.11523C10.0547 2.47546 9.10428 3.39877 7.20352 5.24539L2.42545 9.88737C1.53086 10.7565 1.08357 11.191 0.763435 11.7018C0.479634 12.1546 0.270251 12.6499 0.143255 13.169C9.88748e-08 13.7545 1.3969e-07 14.3781 2.21321e-07 15.6253L8.13286e-07 24.6701C8.33334e-07 24.9764 8.43359e-07 25.1296 0.00671326 25.259C0.139379 27.8167 2.18329 29.8606 4.741 29.9933C4.87042 30 5.02358 30 5.32991 30H6.36152C8.73541 30 10.6598 28.0756 10.6598 25.7017V23.8104C10.6598 22.4811 11.7375 21.4034 13.0669 21.4034C14.3963 21.4034 15.4739 22.4811 15.4739 23.8104V25.7017C15.4739 28.0756 17.3983 30 19.7722 30H20.8038C21.1102 30 21.2633 30 21.3928 29.9933C23.9505 29.8606 25.9944 27.8167 26.127 25.259C26.1338 25.1296 26.1338 24.9764 26.1338 24.6701V15.864Z" fill="#242424"/>
<path d="M21.3928 29.9933L18.1812 -31.9235L21.3928 29.9933ZM26.127 25.259L88.0438 28.4705L26.127 25.259ZM4.741 29.9933L1.52945 91.9101L4.741 29.9933ZM0.143255 13.169L-60.0804 -1.56579L0.143255 13.169ZM18.1666 5.07034L-23.5944 50.8963L18.1666 5.07034ZM14.123 2.06775L31.616 -57.4133L14.123 2.06775ZM11.1492 2.11523L-8.23391 -56.777L11.1492 2.11523ZM23.5223 9.95095L-18.2387 55.7769L23.5223 9.95095ZM25.3099 11.7895L-26.4744 45.8833L25.3099 11.7895ZM25.9789 13.3043L86.0586 -2.00671L25.9789 13.3043ZM65.2832 -35.875L59.9275 -40.7557L-23.5944 50.8963L-18.2387 55.7769L65.2832 -35.875ZM-35.9992 -39.224L-40.7773 -34.582L45.6282 54.3567L50.4063 49.7147L-35.9992 -39.224ZM-62 15.6254V24.6701L62 24.6701V15.6253L-62 15.6254ZM5.32991 92H6.36152V-32H5.32991V92ZM72.6598 25.7017V23.8104H-51.3402V25.7017H72.6598ZM-46.5261 23.8104V25.7017H77.4739V23.8104H-46.5261ZM19.7722 92H20.8038V-32H19.7722V92ZM88.1338 24.6701V15.864H-35.8662V24.6701H88.1338ZM20.8038 92C20.8463 92 21.2873 92.0006 21.7254 91.9966C22.2239 91.9921 23.2818 91.9787 24.6043 91.9101L18.1812 -31.9235C19.3743 -31.9854 20.2909 -31.9955 20.6039 -31.9983C20.7733 -31.9998 20.8903 -32 20.8975 -32C20.9039 -32 20.8962 -32 20.8038 -32V92ZM-35.8662 24.6701C-35.8662 24.7624 -35.8663 24.7702 -35.8662 24.7638C-35.8662 24.7566 -35.8661 24.6395 -35.8645 24.4701C-35.8617 24.1572 -35.8516 23.2405 -35.7897 22.0474L88.0438 28.4705C88.1124 27.1481 88.1259 26.0901 88.1304 25.5917C88.1343 25.1535 88.1338 24.7126 88.1338 24.6701H-35.8662ZM24.6043 91.9101C58.8776 90.1323 86.2661 62.7439 88.0438 28.4705L-35.7897 22.0474C-34.2773 -7.11046 -10.9767 -30.4111 18.1812 -31.9235L24.6043 91.9101ZM-46.5261 25.7017C-46.5261 62.3172 -16.8433 92 19.7722 92V-32C51.64 -32 77.4739 -6.16603 77.4739 25.7017H-46.5261ZM13.0669 83.4034C-19.8454 83.4034 -46.5261 56.7227 -46.5261 23.8104H77.4739C77.4739 -11.7606 48.6379 -40.5966 13.0669 -40.5966V83.4034ZM72.6598 23.8104C72.6598 56.7227 45.9792 83.4034 13.0669 83.4034V-40.5966C-22.5042 -40.5966 -51.3402 -11.7606 -51.3402 23.8104H72.6598ZM6.36152 92C42.977 92 72.6598 62.3173 72.6598 25.7017H-51.3402C-51.3402 -6.1661 -25.5062 -32 6.36152 -32V92ZM-62 24.6701C-62 24.7126 -62.0006 25.1535 -61.9966 25.5917C-61.9921 26.0901 -61.9786 27.1481 -61.9101 28.4706L61.9235 22.0474C61.9854 23.2405 61.9955 24.1571 61.9983 24.4701C61.9998 24.6395 62 24.7566 62 24.7638C62 24.7702 62 24.7624 62 24.6701L-62 24.6701ZM5.32991 -32C5.23756 -32 5.22984 -32 5.23622 -32C5.24341 -32 5.36047 -31.9998 5.52991 -31.9983C5.84285 -31.9955 6.75949 -31.9854 7.95256 -31.9235L1.52945 91.9101C2.85193 91.9787 3.90986 91.9921 4.40832 91.9966C4.8465 92.0006 5.28742 92 5.32991 92V-32ZM-61.9101 28.4706C-60.1323 62.7439 -32.7439 90.1323 1.52945 91.9101L7.95256 -31.9235C37.1105 -30.4111 60.4111 -7.11046 61.9235 22.0474L-61.9101 28.4706ZM-40.7773 -34.582C-40.8306 -34.5302 -42.3683 -33.0576 -43.8432 -31.4851C-45.7139 -29.4905 -48.7575 -26.0322 -51.77 -21.226L53.2968 44.6296C50.6045 48.925 47.9446 51.9107 46.6012 53.343C45.9834 54.0017 45.5241 54.4559 45.4439 54.5352C45.3724 54.606 45.3461 54.6308 45.6282 54.3567L-40.7773 -34.582ZM62 15.6253C62 15.232 62.0005 15.2682 61.9996 15.3687C61.9986 15.4815 61.9929 16.1275 61.951 17.0296C61.8597 18.9912 61.5717 22.9795 60.3669 27.9037L-60.0804 -1.56579C-61.4284 3.94392 -61.7881 8.53679 -61.9151 11.2684C-62.0153 13.422 -62 15.5511 -62 15.6254L62 15.6253ZM-51.77 -21.226C-55.5729 -15.1588 -58.3786 -8.52118 -60.0804 -1.56579L60.3669 27.9037C58.9191 33.821 56.5322 39.4679 53.2968 44.6296L-51.77 -21.226ZM59.9275 -40.7557C59.6804 -40.9809 56.8476 -43.6241 53.8184 -45.9732C50.1928 -48.7847 42.6243 -54.1758 31.616 -57.4133L-3.36991 61.5488C-13.2728 58.6364 -19.7989 53.8541 -22.1688 52.0164C-23.3615 51.0914 -24.1427 50.3961 -24.1885 50.3557C-24.2337 50.3158 -24.1861 50.3571 -23.5944 50.8963L59.9275 -40.7557ZM50.4063 49.7147C50.9805 49.1568 51.0267 49.1141 50.9828 49.1554C50.9384 49.1973 50.1797 49.9172 49.0171 50.8797C46.7072 52.7922 40.3371 57.7804 30.5322 61.0075L-8.23391 -56.777C-19.1333 -53.1897 -26.5258 -47.5597 -30.0598 -44.6339C-33.0125 -42.1893 -35.7594 -39.457 -35.9992 -39.224L50.4063 49.7147ZM31.616 -57.4133C18.5757 -61.2484 4.67731 -61.0265 -8.23391 -56.777L30.5322 61.0075C19.548 64.6227 7.72408 64.8115 -3.36991 61.5488L31.616 -57.4133ZM-18.2387 55.7769C-17.9357 56.053 -17.9624 56.0295 -18.0376 55.9597C-18.1217 55.8815 -18.6122 55.4263 -19.2729 54.7632C-20.7074 53.3235 -23.5692 50.2959 -26.4744 45.8833L77.0942 -22.3042C73.8442 -27.2406 70.5695 -30.7492 68.5679 -32.7581C66.9882 -34.3436 65.3423 -35.8212 65.2832 -35.875L-18.2387 55.7769ZM88.1338 15.864C88.1338 15.784 88.1502 13.5723 88.0424 11.3368C87.9058 8.50413 87.5182 3.72047 86.0586 -2.00671L-34.1008 28.6153C-35.4055 23.4957 -35.7157 19.3413 -35.8136 17.3112C-35.8587 16.3762 -35.8647 15.7071 -35.8658 15.5922C-35.8668 15.4897 -35.8662 15.4541 -35.8662 15.864H88.1338ZM-26.4744 45.8833C-29.9586 40.5912 -32.5361 34.7551 -34.1008 28.6153L86.0586 -2.00671C84.2194 -9.22376 81.1897 -16.0836 77.0942 -22.3042L-26.4744 45.8833Z" fill="#242424" mask="url(#path-1-inside-1_769_2551)"/>
</svg>
