<svg width="181" height="173" viewBox="0 0 181 173" fill="none" xmlns="http://www.w3.org/2000/svg">
<g clip-path="url(#clip0_921_2890)">
<path d="M52.1767 63.1576C47.0528 58.3731 41.9304 54.2807 40.1674 48.8837C35.899 35.819 43.8691 21.8064 44.1514 21.266L44.978 19.67C45.3949 18.8651 46.4978 18.5471 47.2812 19.0059L49.0581 20.0464C49.9685 20.5795 79.0136 33.7132 68.3914 53.3335L52.1767 63.1576Z" fill="#B9997B"/>
<path d="M54.655 60.913C50.8834 57.3913 47.1129 54.379 45.8152 50.4065C42.6734 40.7898 48.54 30.4755 48.7477 30.0778L49.1451 29.3106C49.562 28.5057 50.6649 28.1877 51.4483 28.6465L52.3595 29.18C53.0296 29.5724 74.4089 39.2398 66.5902 53.6818L54.655 60.913Z" fill="#FDF5CF"/>
<path d="M129.168 63.1576C134.292 58.373 139.415 54.2807 141.178 48.8837C145.446 35.819 137.476 21.8064 137.194 21.266L136.367 19.67C135.95 18.8651 134.847 18.5471 134.064 19.0059L132.287 20.0464C131.376 20.5795 102.331 33.7132 112.954 53.3335L129.168 63.1576Z" fill="#B9997B"/>
<path d="M126.69 60.913C130.462 57.3913 134.232 54.379 135.53 50.4065C138.672 40.7898 132.805 30.4755 132.597 30.0778L132.2 29.3106C131.783 28.5057 130.68 28.1877 129.897 28.6465L128.985 29.1801C128.315 29.5724 106.936 39.2398 114.755 53.6818L126.69 60.913Z" fill="#FDF5CF"/>
<path fill-rule="evenodd" clip-rule="evenodd" d="M100.016 29.128C102.736 30.1178 104.138 33.1249 103.148 35.8444L99.2052 46.6776C98.3571 49.0076 96.0284 50.3706 93.6684 50.0909C93.2812 50.3724 92.8486 50.6052 92.3763 50.7771C89.6567 51.7669 86.6497 50.3647 85.6598 47.6451L81.7169 36.8119C80.727 34.0924 82.1292 31.0853 84.8488 30.0955C87.5683 29.1057 90.5754 30.5079 91.5652 33.2274L92.2564 35.1264L93.2997 32.2599C94.2896 29.5404 97.2966 28.1382 100.016 29.128Z" fill="#B9997B"/>
<path fill-rule="evenodd" clip-rule="evenodd" d="M134.503 72.0875C134.566 72.5621 134.846 72.9831 135.26 73.2227C146.588 79.7746 154.21 92.0221 154.21 106.05C154.21 126.979 137.244 143.945 116.315 143.945H72.2507C51.3218 143.945 34.3555 126.979 34.3555 106.05C34.3555 92.0222 41.9773 79.7748 53.3055 73.2229C53.7199 72.9832 53.9999 72.5622 54.0624 72.0877C56.4509 53.9517 71.9695 39.9534 90.7576 39.9534H97.8079C116.596 39.9534 132.115 53.9516 134.503 72.0875Z" fill="#B9997B"/>
<path fill-rule="evenodd" clip-rule="evenodd" d="M151.872 119.185C146.53 133.639 132.626 143.945 116.315 143.945H72.2508C55.9397 143.945 42.0356 133.639 36.6938 119.185C42.0356 104.73 55.9397 94.4248 72.2508 94.4248H116.315C132.626 94.4248 146.53 104.73 151.872 119.185Z" fill="#FDF5CF"/>
<ellipse cx="66.543" cy="81.4261" rx="7.42797" ry="9.28497" fill="#433D3C"/>
<ellipse cx="64.6859" cy="78.1763" rx="2.78549" ry="3.24974" fill="white"/>
<circle cx="68.8644" cy="82.8185" r="1.39274" fill="white"/>
<ellipse rx="7.42797" ry="9.28497" transform="matrix(-1 0 0 1 122.253 81.4261)" fill="#433D3C"/>
<ellipse rx="2.78549" ry="3.24974" transform="matrix(-1 0 0 1 124.11 78.1763)" fill="white"/>
<circle r="1.39274" transform="matrix(-1 0 0 1 119.932 82.8185)" fill="white"/>
<path d="M105.121 94.9025C105.121 91.7552 100.618 89.7249 95.0626 89.7249C89.5074 89.7249 85.0039 91.7552 85.0039 94.9025C85.0039 98.0498 89.5074 101.89 95.0626 101.89C100.618 101.89 105.121 98.0498 105.121 94.9025Z" fill="#433D3C"/>
<circle cx="99.6781" cy="94.7894" r="1.42006" fill="white"/>
<path d="M95.0177 93.7517V104.22C95.0177 107.639 97.7891 110.41 101.208 110.41H102.072C105.014 110.41 107.398 108.026 107.398 105.085V105.085" stroke="#433D3C" stroke-width="3.09721" stroke-linecap="round" stroke-linejoin="round"/>
<path d="M95.0174 93.7517V104.22C95.0174 107.639 92.2461 110.41 88.8274 110.41H87.9627C85.0216 110.41 82.6375 108.026 82.6375 105.085V105.085" stroke="#433D3C" stroke-width="3.09721" stroke-linecap="round" stroke-linejoin="round"/>
<ellipse cx="57.8772" cy="108.538" rx="7.42797" ry="5.44718" fill="#FFCEB9"/>
<ellipse cx="130.919" cy="108.538" rx="7.42797" ry="5.44718" fill="#FFCEB9"/>
<path d="M69.8079 37.2919L71.0845 32.5396C71.4646 31.1247 70.213 29.7739 68.522 29.7739C66.8309 29.7739 65.5794 31.1247 65.9596 32.5396L67.2361 37.2919L67.8593 39.7193L69.3806 39.6345L69.8079 37.2919Z" fill="#FFE591"/>
<path d="M71.1123 40.6203L76.6465 41.7165C78.2943 42.0429 79.8673 40.9682 79.8673 39.516C79.8673 38.0639 78.2943 36.9893 76.6465 37.3156L71.1123 38.4118L68.4163 38.8874V39.981L71.1123 40.6203Z" fill="#FFE591"/>
<path d="M65.9317 40.6203L60.3976 41.7166C58.7498 42.043 57.1768 40.9683 57.1768 39.5161C57.1768 38.064 58.7498 36.9894 60.3976 37.3157L65.9317 38.4118L67.7445 38.7879L68.0902 40.1964L65.9317 40.6203Z" fill="#FFE591"/>
<path d="M66.9684 36.2954L64.5891 33.027C63.6927 31.7957 61.6954 31.6005 60.4997 32.6273C59.3039 33.6541 59.5313 35.3691 60.9652 36.1388L64.7713 38.182L67.4639 39.7193L68.5221 38.7704L66.9684 36.2954Z" fill="#FFE591"/>
<path d="M72.2727 38.182L76.0788 36.1389C77.5127 35.3692 77.7401 33.6541 76.5444 32.6273C75.3486 31.6006 73.3514 31.7958 72.455 33.0271L70.0757 36.2954L68.0903 39.0325L69.0944 40.236L72.2727 38.182Z" fill="#FFE591"/>
<path d="M72.2727 40.8502L76.0788 42.8933C77.5127 43.6631 77.7401 45.3781 76.5444 46.4049C75.3486 47.4317 73.3514 47.2365 72.455 46.0051L70.0757 42.7368L68.2074 40.5637L69.7285 39.3588L72.2727 40.8502Z" fill="#FFE591"/>
<path d="M66.9684 42.7369L64.5891 46.0052C63.6927 47.2365 61.6954 47.4318 60.4997 46.405C59.3039 45.3782 59.5313 43.6632 60.9652 42.8934L64.7713 40.8503L68.0902 39.1097L68.9416 39.7231L66.9684 42.7369Z" fill="#FFE591"/>
<path d="M69.979 41.8762L71.2352 46.5527C71.6092 47.9451 70.3776 49.2743 68.7136 49.2743C67.0495 49.2743 65.818 47.9451 66.1919 46.5527L67.4481 41.8762L67.9312 39.3422L69.1561 39.2273L69.979 41.8762Z" fill="#FFE591"/>
<path d="M68.5226 41.8101C69.9979 41.8101 71.1938 40.7831 71.1938 39.5162C71.1938 38.2494 69.9979 37.2224 68.5226 37.2224C67.0473 37.2224 65.8513 38.2494 65.8513 39.5162C65.8513 40.7831 67.0473 41.8101 68.5226 41.8101Z" fill="#FFD500"/>
<g style="mix-blend-mode:multiply">
<path fill-rule="evenodd" clip-rule="evenodd" d="M67.8462 41.7363C68.0623 41.7848 68.289 41.8106 68.5228 41.8106C69.9981 41.8106 71.1941 40.7836 71.1941 39.5167C71.1941 38.2499 69.9981 37.2229 68.5228 37.2229C68.3693 37.2229 68.2189 37.234 68.0725 37.2554C69.2201 37.5126 70.0671 38.4089 70.0671 39.475C70.0671 40.61 69.1071 41.5525 67.8462 41.7363Z" fill="#FED402" fill-opacity="0.5"/>
</g>
<path d="M40.2311 112.719C39.6255 111.616 38.2948 111.154 37.1106 111.579L35.9149 112.009C34.2458 112.609 33.6594 114.636 34.5338 116.18C35.4645 117.822 36.0238 119.369 36.3532 121.228C36.6633 122.977 38.4082 124.172 40.08 123.572L41.2817 123.14C42.4591 122.717 43.1913 121.524 42.9605 120.294C42.4163 117.395 41.6489 115.301 40.2311 112.719Z" fill="#3F2B1F"/>
<path d="M62.0903 130.064C57.5621 122.423 48.0915 119.964 39.7323 122.98C31.2349 126.047 25.4556 134.206 27.0237 143.107C28.7211 152.741 32.3575 163.991 40.1439 166.982C51.4255 171.316 61.6607 167.56 67.6146 157.006C71.7724 149.636 67.1155 138.544 62.0903 130.064Z" fill="#9F784E"/>
<g style="mix-blend-mode:multiply">
<path fill-rule="evenodd" clip-rule="evenodd" d="M69.22 150.464C69.2012 152.829 68.7188 155.049 67.6143 157.007C61.6604 167.56 51.4252 171.317 40.1436 166.983C32.3572 163.992 28.7207 152.742 27.0234 143.108C26.4646 139.936 26.8388 136.859 27.9365 134.072C27.9309 134.965 27.9967 135.871 28.1391 136.787C29.6506 146.508 33.0942 157.938 40.9327 160.949C52.2142 165.283 63.08 161.362 69.034 150.808C69.0981 150.694 69.1601 150.58 69.22 150.464Z" fill="#9F784E" fill-opacity="0.6"/>
</g>
<path d="M23.1011 138.401C22.5958 132.458 28.6776 126.077 39.423 122.216C47.5792 119.285 54.3773 118.6 59.008 120.948C61.4046 121.92 63.5423 124.156 64.6227 127.162C66.4 132.108 64.6422 137.267 60.6965 138.685C59.0069 139.293 57.1901 139.115 55.5254 138.326C54.7439 139.994 53.4555 141.287 51.7659 141.895C50.3745 142.395 48.8969 142.363 47.4889 141.895C46.7963 144.05 45.35 145.756 43.3305 146.482C41.4794 147.147 39.4755 146.87 37.6861 145.879C36.8927 147.331 35.6884 148.45 34.1524 149.002C30.2067 150.42 25.5672 147.56 23.7898 142.613C23.2804 141.196 23.0614 139.761 23.1011 138.401Z" fill="#322318"/>
<path d="M22.2466 136.023C21.7413 130.08 27.8231 123.699 38.5685 119.838C46.7247 116.907 53.5228 116.222 58.1535 118.569C60.5502 119.542 62.6878 121.778 63.7682 124.784C65.5455 129.73 63.7877 134.889 59.842 136.307C58.1524 136.914 56.3357 136.737 54.6709 135.948C53.8894 137.616 52.601 138.909 50.9114 139.516C49.5201 140.016 48.0424 139.984 46.6344 139.517C45.9418 141.672 44.4955 143.378 42.476 144.103C40.6249 144.769 38.621 144.492 36.8316 143.5C36.0382 144.953 34.8339 146.072 33.298 146.624C29.3522 148.042 24.7127 145.181 22.9353 140.235C22.4259 138.818 22.2069 137.383 22.2466 136.023Z" fill="#5E4030"/>
<path d="M73.9248 130.887C73.5273 130.163 72.6541 129.86 71.877 130.139L71.0924 130.421C69.9971 130.815 69.6123 132.145 70.186 133.158C70.7968 134.236 71.1638 135.251 71.38 136.47C71.5835 137.618 72.7285 138.403 73.8256 138.009L74.6141 137.725C75.3868 137.448 75.8673 136.665 75.7158 135.858C75.3587 133.956 74.8552 132.581 73.9248 130.887Z" fill="#3F2B1F"/>
<path d="M88.2697 142.27C85.2983 137.255 79.0835 135.642 73.598 137.621C68.0219 139.633 64.2294 144.988 65.2584 150.829C66.3723 157.151 68.7586 164.533 73.8682 166.496C81.2713 169.34 87.9878 166.875 91.8949 159.949C94.6233 155.113 91.5674 147.835 88.2697 142.27Z" fill="#9F784E"/>
<g style="mix-blend-mode:multiply">
<path fill-rule="evenodd" clip-rule="evenodd" d="M92.9481 155.656C92.9357 157.208 92.6191 158.665 91.8944 159.949C87.9873 166.875 81.2708 169.34 73.8677 166.496C68.7581 164.533 66.3718 157.151 65.2579 150.829C64.8912 148.747 65.1368 146.728 65.8571 144.899C65.8534 145.485 65.8966 146.08 65.99 146.681C66.9819 153.06 69.2416 160.561 74.3854 162.537C81.7885 165.381 88.9189 162.807 92.826 155.882C92.8681 155.807 92.9088 155.732 92.9481 155.656Z" fill="#9F784E" fill-opacity="0.6"/>
</g>
<path d="M62.6836 147.741C62.352 143.841 66.343 139.653 73.3943 137.119C78.7466 135.196 83.2076 134.747 86.2464 136.287C87.8191 136.925 89.2219 138.392 89.9308 140.365C91.0971 143.611 89.9436 146.996 87.3544 147.927C86.2456 148.325 85.0535 148.209 83.961 147.691C83.4482 148.786 82.6027 149.634 81.494 150.033C80.5809 150.361 79.6113 150.34 78.6873 150.033C78.2328 151.447 77.2837 152.567 75.9585 153.043C74.7438 153.479 73.4288 153.298 72.2546 152.647C71.7339 153.6 70.9436 154.335 69.9357 154.697C67.3464 155.627 64.3019 153.75 63.1356 150.505C62.8013 149.574 62.6575 148.633 62.6836 147.741Z" fill="#322318"/>
<path d="M62.1233 146.18C61.7917 142.28 65.7827 138.092 72.834 135.559C78.1863 133.635 82.6473 133.186 85.6861 134.726C87.2588 135.365 88.6616 136.832 89.3705 138.805C90.5368 142.05 89.3833 145.436 86.7941 146.366C85.6853 146.765 84.4931 146.648 83.4007 146.13C82.8879 147.225 82.0424 148.074 80.9337 148.472C80.0206 148.8 79.051 148.779 78.127 148.472C77.6725 149.887 76.7234 151.006 75.3982 151.482C74.1835 151.919 72.8685 151.737 71.6943 151.086C71.1736 152.04 70.3833 152.774 69.3754 153.136C66.7861 154.066 63.7416 152.189 62.5753 148.944C62.241 148.014 62.0972 147.072 62.1233 146.18Z" fill="#5E4030"/>
<path d="M130.427 129.509C149.095 151.096 152.702 163.989 156.665 194.802" stroke="#BBD468" stroke-width="2.43371" stroke-linecap="round"/>
<path d="M128.527 121.225C129.589 122.286 130.421 123.624 131.07 125.005C132.737 128.557 129.25 131.775 125.792 129.92C124.489 129.221 123.222 128.366 122.191 127.337C121.212 126.358 120.39 125.167 119.71 123.933C117.784 120.442 121.094 116.923 124.693 118.64C126.104 119.313 127.463 120.163 128.527 121.225Z" fill="#BBD468"/>
<path d="M133.26 136.456C134.335 136.581 135.421 136.901 136.425 137.295C138.535 138.123 138.228 140.769 135.983 141.091C134.916 141.244 133.785 141.306 132.711 141.181C131.636 141.056 130.55 140.737 129.547 140.343C127.436 139.515 127.743 136.868 129.988 136.547C131.055 136.394 132.186 136.332 133.26 136.456Z" fill="#BBD468"/>
<path d="M141.532 134.417C141.385 135.489 141.042 136.568 140.628 137.563C139.757 139.657 137.117 139.295 136.842 137.044C136.711 135.974 136.672 134.842 136.819 133.77C136.966 132.699 137.308 131.62 137.722 130.624C138.594 128.531 141.233 128.893 141.509 131.143C141.64 132.214 141.679 133.345 141.532 134.417Z" fill="#BBD468"/>
<path d="M140.177 147.12C141.251 147.245 142.337 147.565 143.341 147.959C145.452 148.787 145.144 151.433 142.9 151.755C141.832 151.908 140.702 151.97 139.628 151.845C138.553 151.72 137.467 151.401 136.463 151.007C134.353 150.179 134.66 147.532 136.905 147.211C137.972 147.058 139.102 146.996 140.177 147.12Z" fill="#BBD468"/>
<path d="M149.468 146.54C149.068 147.545 148.476 148.51 147.835 149.377C146.486 151.2 144.011 150.214 144.284 147.963C144.415 146.892 144.649 145.785 145.049 144.78C145.45 143.775 146.041 142.81 146.683 141.943C148.032 140.121 150.507 141.107 150.233 143.357C150.103 144.428 149.869 145.535 149.468 146.54Z" fill="#BBD468"/>
<path d="M146.251 158.827C147.315 159.026 148.376 159.42 149.35 159.882C151.399 160.853 150.91 163.472 148.649 163.639C147.573 163.718 146.441 163.702 145.378 163.503C144.314 163.304 143.253 162.91 142.279 162.448C140.23 161.477 140.719 158.858 142.981 158.692C144.056 158.613 145.188 158.629 146.251 158.827Z" fill="#BBD468"/>
<path d="M154.587 158.933C154.047 159.87 153.323 160.74 152.563 161.506C150.967 163.116 148.659 161.784 149.253 159.596C149.535 158.556 149.926 157.493 150.467 156.556C151.007 155.619 151.731 154.749 152.491 153.983C154.087 152.373 156.395 153.705 155.801 155.893C155.518 156.933 155.128 157.996 154.587 158.933Z" fill="#BBD468"/>
<path d="M149.469 171.289C150.512 171.577 151.537 172.058 152.469 172.601C154.429 173.741 153.721 176.309 151.454 176.285C150.375 176.273 149.249 176.163 148.206 175.875C147.163 175.588 146.139 175.106 145.206 174.564C143.247 173.424 143.954 170.855 146.222 170.88C147.3 170.891 148.427 171.002 149.469 171.289Z" fill="#BBD468"/>
<path d="M158.87 172.772C158.223 173.639 157.401 174.418 156.556 175.088C154.78 176.498 152.646 174.903 153.495 172.801C153.898 171.801 154.412 170.792 155.06 169.925C155.707 169.059 156.529 168.28 157.374 167.61C159.149 166.2 161.284 167.795 160.435 169.897C160.031 170.897 159.518 171.906 158.87 172.772Z" fill="#BBD468"/>
<path d="M113.762 140.619C132.43 162.207 136.037 175.099 140 205.912" stroke="#BBD468" stroke-width="2.43371" stroke-linecap="round"/>
<path d="M111.863 132.336C112.924 133.396 113.757 134.734 114.405 136.115C116.072 139.667 112.585 142.885 109.128 141.03C107.825 140.331 106.558 139.477 105.527 138.447C104.547 137.469 103.726 136.277 103.045 135.044C101.119 131.552 104.429 128.034 108.028 129.75C109.439 130.423 110.798 131.273 111.863 132.336Z" fill="#BBD468"/>
<path d="M116.595 147.567C117.669 147.691 118.755 148.011 119.759 148.405C121.87 149.233 121.562 151.879 119.318 152.201C118.25 152.354 117.12 152.416 116.046 152.291C114.971 152.167 113.885 151.847 112.881 151.453C110.77 150.625 111.078 147.979 113.323 147.657C114.39 147.504 115.52 147.442 116.595 147.567Z" fill="#BBD468"/>
<path d="M124.866 145.527C124.719 146.599 124.377 147.678 123.963 148.673C123.091 150.767 120.452 150.405 120.177 148.154C120.046 147.084 120.007 145.952 120.154 144.881C120.301 143.809 120.643 142.73 121.057 141.734C121.928 139.641 124.568 140.003 124.843 142.253C124.974 143.324 125.013 144.455 124.866 145.527Z" fill="#BBD468"/>
<path d="M123.512 158.231C124.586 158.356 125.672 158.675 126.676 159.069C128.787 159.897 128.479 162.543 126.235 162.865C125.167 163.018 124.037 163.08 122.962 162.955C121.888 162.831 120.802 162.511 119.798 162.117C117.687 161.289 117.995 158.643 120.239 158.321C121.307 158.168 122.437 158.106 123.512 158.231Z" fill="#BBD468"/>
<path d="M132.803 157.651C132.403 158.656 131.811 159.621 131.169 160.488C129.821 162.31 127.346 161.324 127.619 159.073C127.749 158.003 127.984 156.895 128.384 155.89C128.784 154.885 129.376 153.92 130.017 153.053C131.366 151.231 133.841 152.217 133.568 154.468C133.437 155.538 133.203 156.646 132.803 157.651Z" fill="#BBD468"/>
<path d="M129.586 169.937C130.649 170.136 131.711 170.53 132.685 170.992C134.734 171.963 134.245 174.582 131.983 174.748C130.908 174.827 129.776 174.812 128.713 174.613C127.649 174.414 126.588 174.02 125.613 173.558C123.565 172.587 124.054 169.968 126.315 169.802C127.391 169.723 128.523 169.738 129.586 169.937Z" fill="#BBD468"/>
<path d="M137.922 170.043C137.381 170.98 136.657 171.85 135.898 172.616C134.301 174.226 131.993 172.895 132.587 170.707C132.87 169.666 133.261 168.603 133.801 167.666C134.342 166.729 135.066 165.859 135.825 165.094C137.422 163.484 139.73 164.815 139.136 167.003C138.853 168.044 138.462 169.106 137.922 170.043Z" fill="#BBD468"/>
</g>
<defs>
<clipPath id="clip0_921_2890">
<rect x="0.897217" y="0.40332" width="179.96" height="172.194" rx="5.28687" fill="white"/>
</clipPath>
</defs>
</svg>
