<svg width="180" height="200" viewBox="0 0 180 200" fill="none" xmlns="http://www.w3.org/2000/svg">
<path d="M130.585 13.3036C126.499 16.7746 144.416 22.8474 141.901 32.8731C139.387 42.8998 122.517 27.8607 118.745 32.6809C114.972 37.5011 136.529 45.4727 128.384 57.5864C120.238 69.7001 100.933 64.88 100.933 64.88V69.8933C100.933 69.8933 144.102 82.0399 158.351 51.191C172.601 20.3412 160.656 0 153.112 0C145.568 0 151.436 12.05 147.244 15.521C143.053 18.992 134.671 9.83355 130.585 13.3036Z" fill="#FED080"/>
<path d="M49.4691 13.3036C53.5555 16.7746 35.6386 22.8474 38.1536 32.8731C40.6676 42.8998 57.5369 27.8607 61.3094 32.6809C65.082 37.5011 43.5248 45.4727 51.6703 57.5864C59.8157 69.7001 79.1213 64.88 79.1213 64.88V69.8933C79.1213 69.8933 35.9525 82.0399 21.7032 51.191C7.4528 20.3412 19.3981 0 26.9421 0C34.4861 0 28.6184 12.05 32.8098 15.521C37.0011 18.992 45.3827 9.83355 49.4691 13.3036Z" fill="#FED080"/>
<ellipse rx="24.7963" ry="14.6533" transform="matrix(-0.930138 -0.36721 -0.375592 0.926785 149.982 82.7597)" fill="#BF8969"/>
<g style="mix-blend-mode:multiply">
<ellipse rx="17.1349" ry="10.1259" transform="matrix(-0.930138 -0.36721 -0.375592 0.926785 149.982 82.7596)" fill="#BF8969"/>
</g>
<ellipse rx="24.7963" ry="14.6533" transform="matrix(0.930138 -0.36721 0.375592 0.926785 30.0181 82.7597)" fill="#BF8969"/>
<g style="mix-blend-mode:multiply">
<ellipse rx="17.1349" ry="10.1259" transform="matrix(0.930138 -0.36721 0.375592 0.926785 30.0179 82.7596)" fill="#BF8969"/>
</g>
<path d="M93.0305 28.7111C93.0735 25.7186 91.4892 23.2405 89.4918 23.1761C87.4944 23.1117 85.8404 25.4853 85.7974 28.4778L85.7364 32.7246L84.7757 28.7701C84.0924 25.9574 82.0166 24.5072 80.1392 25.5309C78.2619 26.5547 77.2939 29.6647 77.9772 32.4774L81.2765 46.0582C81.9598 48.8709 84.0356 50.3211 85.9129 49.2974C86.514 48.9696 87.0219 48.428 87.4121 47.7507C87.919 48.1853 88.5036 48.4418 89.1285 48.4619C89.6406 48.4784 90.1302 48.3347 90.5758 48.0613C90.9092 49.5898 91.6912 50.8816 92.778 51.4742C94.6553 52.4979 96.7312 51.0477 97.4145 48.235L100.714 34.6542C101.397 31.8415 100.429 28.7315 98.5517 27.7078C96.6743 26.684 94.5985 28.1343 93.9152 30.9469L92.9408 34.9581L93.0305 28.7111Z" fill="#BF8969"/>
<path d="M146.726 83.5464C143.943 56.9805 121.545 36.8069 94.8341 36.8069H83.8566C57.1453 36.8069 34.7479 56.9805 31.9648 83.5465L25.4872 145.378C23.5513 163.857 38.0424 179.945 56.6223 179.945H122.068C140.648 179.945 155.139 163.857 153.204 145.378L146.726 83.5464Z" fill="#BF8969"/>
<ellipse rx="66.1163" ry="34.7622" transform="matrix(-1 0 0 1 89.3453 143.82)" fill="#FED080"/>
<ellipse rx="5.45289" ry="3.27174" transform="matrix(-1 0 0 1 129.561 109.603)" fill="#FFCEB9"/>
<ellipse rx="5.45289" ry="3.27174" transform="matrix(-1 0 0 1 49.1304 109.603)" fill="#FFCEB9"/>
<circle cx="121.381" cy="92.6987" r="12.269" fill="#4B2B1D"/>
<circle cx="117.292" cy="88.609" r="4.08967" fill="white"/>
<circle cx="123.426" cy="96.1064" r="2.04484" fill="white"/>
<circle r="12.269" transform="matrix(-1 0 0 1 57.3098 92.6987)" fill="#4B2B1D"/>
<circle r="4.08967" transform="matrix(-1 0 0 1 61.3996 88.609)" fill="white"/>
<circle r="2.04484" transform="matrix(-1 0 0 1 55.265 96.1064)" fill="white"/>
<path d="M99.385 128.879L90.7089 125.416L81.0626 128.879V132.544C81.0626 137.604 85.1642 141.705 90.2238 141.705C95.2834 141.705 99.385 137.604 99.385 132.544V128.879Z" fill="#FEB1AA"/>
<path d="M78.2435 111.533C78.2435 114.938 83.6071 117.699 90.2235 117.699C96.84 117.699 102.204 114.938 102.204 111.533C102.204 108.127 96.84 103.605 90.2235 103.605C83.6071 103.605 78.2435 108.127 78.2435 111.533Z" fill="#4B2B1D"/>
<circle r="1.76177" transform="matrix(-1 0 0 1 84.9382 108.186)" fill="white"/>
<path d="M90.2779 109.134V121.602C90.2779 125.674 86.9772 128.975 82.9056 128.975H81.8756C78.3728 128.975 75.5332 126.135 75.5332 122.632V122.632" stroke="#4B2B1D" stroke-width="1.48346" stroke-linecap="round" stroke-linejoin="round"/>
<path d="M90.2778 109.135V121.602C90.2778 125.674 93.5785 128.975 97.6501 128.975H98.6801C102.183 128.975 105.022 126.135 105.022 122.632V122.632" stroke="#4B2B1D" stroke-width="1.48346" stroke-linecap="round" stroke-linejoin="round"/>
<path fill-rule="evenodd" clip-rule="evenodd" d="M69.6071 157.803C70.3807 157.803 70.9845 158.474 70.9007 159.243C69.1915 174.912 66.6967 183.437 56.1685 194.673C55.8788 194.983 55.4514 195.132 55.0322 195.071L52.8214 194.747C52.0325 196.545 50.7389 197.982 49.2141 199.281C48.94 199.515 48.5283 199.482 48.2947 199.208C48.0611 198.934 48.0939 198.522 48.3681 198.288C49.7086 197.146 50.7832 195.956 51.4747 194.55L46.0718 193.76C45.3049 195.739 43.9375 197.288 42.3053 198.679C42.0311 198.912 41.6195 198.88 41.3859 198.605C41.1522 198.331 41.1851 197.92 41.4592 197.686C42.9199 196.441 44.0648 195.14 44.7424 193.565L39.8129 192.843C39.0283 194.686 37.7159 196.151 36.1641 197.473C35.8899 197.707 35.4783 197.674 35.2447 197.4C35.011 197.126 35.0439 196.714 35.318 196.48C36.6888 195.312 37.7815 194.094 38.4709 192.647L33.5434 191.926C32.7482 193.634 31.4929 195.015 30.0227 196.268C29.7486 196.501 29.337 196.469 29.1033 196.194C28.8697 195.92 28.9025 195.509 29.1767 195.275C30.4564 194.184 31.4937 193.051 32.1868 191.727L27.2633 191.006C26.4647 192.584 25.2688 193.88 23.8816 195.062C23.6074 195.296 23.1958 195.263 22.9621 194.989C22.7285 194.715 22.7614 194.303 23.0355 194.07C24.2228 193.058 25.2015 192.009 25.8902 190.805L20.9724 190.086C20.1777 191.536 19.0434 192.747 17.7404 193.857C17.4662 194.091 17.0546 194.058 16.821 193.784C16.5873 193.51 16.6202 193.098 16.8943 192.865C17.9881 191.932 18.9049 190.969 19.5809 189.882L14.6702 189.163C13.8867 190.489 12.8166 191.615 11.5992 192.652C11.325 192.886 10.9134 192.853 10.6798 192.579C10.4461 192.305 10.479 191.893 10.7531 191.659C11.7521 190.808 12.6034 189.93 13.2585 188.957L12.5542 188.853C11.5814 188.711 11.1121 187.581 11.6868 186.783C19.1672 176.399 22.5696 169.839 25.5063 158.783C25.6591 158.208 26.1786 157.803 26.7739 157.803H69.6071Z" fill="#C03A2B"/>
<path d="M153.681 130.636C153.603 130.137 153.01 129.912 152.616 130.228C117.221 158.599 59.4861 157.325 26.6803 130.211C26.2986 129.896 25.7161 130.097 25.6151 130.582L18.5861 164.322C18.1076 166.618 19.2196 168.961 21.3306 169.985C65.6474 191.482 115.064 191.466 156.341 169.936C158.282 168.924 159.327 166.771 158.989 164.608L153.681 130.636Z" fill="#E64C3C"/>
</svg>
