<svg width="27" height="29" viewBox="0 0 27 29" fill="none" xmlns="http://www.w3.org/2000/svg">
<mask id="path-1-inside-1_136_326" fill="white">
<path d="M26.1338 14.864C26.1338 13.5626 26.1338 12.9119 25.9789 12.3043C25.8416 11.7657 25.6155 11.2538 25.3099 10.7895C24.9651 10.2658 24.4841 9.8275 23.5223 8.95095L18.1666 4.07034C16.2078 2.28534 15.2285 1.39285 14.123 1.06775C13.1499 0.781548 12.1127 0.798109 11.1492 1.11523C10.0547 1.47546 9.10428 2.39877 7.20352 4.24539L2.42545 8.88737C1.53086 9.75648 1.08357 10.191 0.763435 10.7018C0.479634 11.1546 0.270251 11.6499 0.143255 12.169C9.88748e-08 12.7545 1.3969e-07 13.3781 2.21321e-07 14.6253L8.13286e-07 23.6701C8.33334e-07 23.9764 8.43359e-07 24.1296 0.00671326 24.259C0.139379 26.8167 2.18329 28.8606 4.741 28.9933C4.87042 29 5.02358 29 5.32991 29H6.36152C8.73541 29 10.6598 27.0756 10.6598 24.7017V22.8104C10.6598 21.4811 11.7375 20.4034 13.0669 20.4034C14.3963 20.4034 15.4739 21.4811 15.4739 22.8104V24.7017C15.4739 27.0756 17.3983 29 19.7722 29H20.8038C21.1102 29 21.2633 29 21.3928 28.9933C23.9505 28.8606 25.9944 26.8167 26.127 24.259C26.1338 24.1296 26.1338 23.9764 26.1338 23.6701V14.864Z"/>
</mask>
<path d="M26.1338 14.864C26.1338 13.5626 26.1338 12.9119 25.9789 12.3043C25.8416 11.7657 25.6155 11.2538 25.3099 10.7895C24.9651 10.2658 24.4841 9.8275 23.5223 8.95095L18.1666 4.07034C16.2078 2.28534 15.2285 1.39285 14.123 1.06775C13.1499 0.781548 12.1127 0.798109 11.1492 1.11523C10.0547 1.47546 9.10428 2.39877 7.20352 4.24539L2.42545 8.88737C1.53086 9.75648 1.08357 10.191 0.763435 10.7018C0.479634 11.1546 0.270251 11.6499 0.143255 12.169C9.88748e-08 12.7545 1.3969e-07 13.3781 2.21321e-07 14.6253L8.13286e-07 23.6701C8.33334e-07 23.9764 8.43359e-07 24.1296 0.00671326 24.259C0.139379 26.8167 2.18329 28.8606 4.741 28.9933C4.87042 29 5.02358 29 5.32991 29H6.36152C8.73541 29 10.6598 27.0756 10.6598 24.7017V22.8104C10.6598 21.4811 11.7375 20.4034 13.0669 20.4034C14.3963 20.4034 15.4739 21.4811 15.4739 22.8104V24.7017C15.4739 27.0756 17.3983 29 19.7722 29H20.8038C21.1102 29 21.2633 29 21.3928 28.9933C23.9505 28.8606 25.9944 26.8167 26.127 24.259C26.1338 24.1296 26.1338 23.9764 26.1338 23.6701V14.864Z" fill="#FFFCEB"/>
<path d="M21.3928 28.9933L18.1812 -32.9235L21.3928 28.9933ZM26.127 24.259L88.0438 27.4705L26.127 24.259ZM4.741 28.9933L1.52945 90.9101L4.741 28.9933ZM0.143255 12.169L-60.0804 -2.56579L0.143255 12.169ZM18.1666 4.07034L-23.5944 49.8963L18.1666 4.07034ZM14.123 1.06775L31.616 -58.4133L14.123 1.06775ZM11.1492 1.11523L-8.23391 -57.777L11.1492 1.11523ZM23.5223 8.95095L-18.2387 54.7769L23.5223 8.95095ZM25.3099 10.7895L-26.4744 44.8833L25.3099 10.7895ZM25.9789 12.3043L86.0586 -3.00671L25.9789 12.3043ZM65.2832 -36.875L59.9275 -41.7557L-23.5944 49.8963L-18.2387 54.7769L65.2832 -36.875ZM-35.9992 -40.224L-40.7773 -35.582L45.6282 53.3567L50.4063 48.7147L-35.9992 -40.224ZM-62 14.6254V23.6701L62 23.6701V14.6253L-62 14.6254ZM5.32991 91H6.36152V-33H5.32991V91ZM72.6598 24.7017V22.8104H-51.3402V24.7017H72.6598ZM-46.5261 22.8104V24.7017H77.4739V22.8104H-46.5261ZM19.7722 91H20.8038V-33H19.7722V91ZM88.1338 23.6701V14.864H-35.8662V23.6701H88.1338ZM20.8038 91C20.8463 91 21.2873 91.0006 21.7254 90.9966C22.2239 90.9921 23.2818 90.9787 24.6043 90.9101L18.1812 -32.9235C19.3743 -32.9854 20.2909 -32.9955 20.6039 -32.9983C20.7733 -32.9998 20.8903 -33 20.8975 -33C20.9039 -33 20.8962 -33 20.8038 -33V91ZM-35.8662 23.6701C-35.8662 23.7624 -35.8663 23.7702 -35.8662 23.7638C-35.8662 23.7566 -35.8661 23.6395 -35.8645 23.4701C-35.8617 23.1572 -35.8516 22.2405 -35.7897 21.0474L88.0438 27.4705C88.1124 26.1481 88.1259 25.0901 88.1304 24.5917C88.1343 24.1535 88.1338 23.7126 88.1338 23.6701H-35.8662ZM24.6043 90.9101C58.8776 89.1323 86.2661 61.7439 88.0438 27.4705L-35.7897 21.0474C-34.2773 -8.11046 -10.9767 -31.4111 18.1812 -32.9235L24.6043 90.9101ZM-46.5261 24.7017C-46.5261 61.3172 -16.8433 91 19.7722 91V-33C51.64 -33 77.4739 -7.16603 77.4739 24.7017H-46.5261ZM13.0669 82.4034C-19.8454 82.4034 -46.5261 55.7227 -46.5261 22.8104H77.4739C77.4739 -12.7606 48.6379 -41.5966 13.0669 -41.5966V82.4034ZM72.6598 22.8104C72.6598 55.7227 45.9792 82.4034 13.0669 82.4034V-41.5966C-22.5042 -41.5966 -51.3402 -12.7606 -51.3402 22.8104H72.6598ZM6.36152 91C42.977 91 72.6598 61.3173 72.6598 24.7017H-51.3402C-51.3402 -7.1661 -25.5062 -33 6.36152 -33V91ZM-62 23.6701C-62 23.7126 -62.0006 24.1535 -61.9966 24.5917C-61.9921 25.0901 -61.9786 26.1481 -61.9101 27.4706L61.9235 21.0474C61.9854 22.2405 61.9955 23.1571 61.9983 23.4701C61.9998 23.6395 62 23.7566 62 23.7638C62 23.7702 62 23.7624 62 23.6701L-62 23.6701ZM5.32991 -33C5.23756 -33 5.22984 -33 5.23622 -33C5.24341 -33 5.36047 -32.9998 5.52991 -32.9983C5.84285 -32.9955 6.75949 -32.9854 7.95256 -32.9235L1.52945 90.9101C2.85193 90.9787 3.90986 90.9921 4.40832 90.9966C4.8465 91.0006 5.28742 91 5.32991 91V-33ZM-61.9101 27.4706C-60.1323 61.7439 -32.7439 89.1323 1.52945 90.9101L7.95256 -32.9235C37.1105 -31.4111 60.4111 -8.11046 61.9235 21.0474L-61.9101 27.4706ZM-40.7773 -35.582C-40.8306 -35.5302 -42.3683 -34.0576 -43.8432 -32.4851C-45.7139 -30.4905 -48.7575 -27.0322 -51.77 -22.226L53.2968 43.6296C50.6045 47.925 47.9446 50.9107 46.6012 52.343C45.9834 53.0017 45.5241 53.4559 45.4439 53.5352C45.3724 53.606 45.3461 53.6308 45.6282 53.3567L-40.7773 -35.582ZM62 14.6253C62 14.232 62.0005 14.2682 61.9996 14.3687C61.9986 14.4815 61.9929 15.1275 61.951 16.0296C61.8597 17.9912 61.5717 21.9795 60.3669 26.9037L-60.0804 -2.56579C-61.4284 2.94392 -61.7881 7.53679 -61.9151 10.2684C-62.0153 12.422 -62 14.5511 -62 14.6254L62 14.6253ZM-51.77 -22.226C-55.5729 -16.1588 -58.3786 -9.52118 -60.0804 -2.56579L60.3669 26.9037C58.9191 32.821 56.5322 38.4679 53.2968 43.6296L-51.77 -22.226ZM59.9275 -41.7557C59.6804 -41.9809 56.8476 -44.6241 53.8184 -46.9732C50.1928 -49.7847 42.6243 -55.1758 31.616 -58.4133L-3.36991 60.5488C-13.2728 57.6364 -19.7989 52.8541 -22.1688 51.0164C-23.3615 50.0914 -24.1427 49.3961 -24.1885 49.3557C-24.2337 49.3158 -24.1861 49.3571 -23.5944 49.8963L59.9275 -41.7557ZM50.4063 48.7147C50.9805 48.1568 51.0267 48.1141 50.9828 48.1554C50.9384 48.1973 50.1797 48.9172 49.0171 49.8797C46.7072 51.7922 40.3371 56.7804 30.5322 60.0075L-8.23391 -57.777C-19.1333 -54.1897 -26.5258 -48.5597 -30.0598 -45.6339C-33.0125 -43.1893 -35.7594 -40.457 -35.9992 -40.224L50.4063 48.7147ZM31.616 -58.4133C18.5757 -62.2484 4.67731 -62.0265 -8.23391 -57.777L30.5322 60.0075C19.548 63.6227 7.72408 63.8115 -3.36991 60.5488L31.616 -58.4133ZM-18.2387 54.7769C-17.9357 55.053 -17.9624 55.0295 -18.0376 54.9597C-18.1217 54.8815 -18.6122 54.4263 -19.2729 53.7632C-20.7074 52.3235 -23.5692 49.2959 -26.4744 44.8833L77.0942 -23.3042C73.8442 -28.2406 70.5695 -31.7492 68.5679 -33.7581C66.9882 -35.3436 65.3423 -36.8212 65.2832 -36.875L-18.2387 54.7769ZM88.1338 14.864C88.1338 14.784 88.1502 12.5723 88.0424 10.3368C87.9058 7.50413 87.5182 2.72047 86.0586 -3.00671L-34.1008 27.6153C-35.4055 22.4957 -35.7157 18.3413 -35.8136 16.3112C-35.8587 15.3762 -35.8647 14.7071 -35.8658 14.5922C-35.8668 14.4897 -35.8662 14.4541 -35.8662 14.864H88.1338ZM-26.4744 44.8833C-29.9586 39.5912 -32.5361 33.7551 -34.1008 27.6153L86.0586 -3.00671C84.2194 -10.2238 81.1897 -17.0836 77.0942 -23.3042L-26.4744 44.8833Z" fill="white" mask="url(#path-1-inside-1_136_326)"/>
</svg>
