<svg width="19" height="19" viewBox="0 0 19 19" fill="none" xmlns="http://www.w3.org/2000/svg">
<path d="M9.23035 15.8024L8.98054 16.1778C9.13186 16.2785 9.32884 16.2785 9.48016 16.1778L9.23035 15.8024ZM1.80127 5.05477L1.55146 4.67934C1.42581 4.76294 1.35032 4.90385 1.35032 5.05477H1.80127ZM1.80127 15.8024H1.35032C1.35032 15.9686 1.44178 16.1214 1.58831 16.1999C1.73485 16.2784 1.91268 16.2699 2.05108 16.1778L1.80127 15.8024ZM16.6594 5.05477H17.1104C17.1104 4.90385 17.0349 4.76294 16.9092 4.67934L16.6594 5.05477ZM16.6594 15.8024L16.4096 16.1778C16.548 16.2699 16.7259 16.2784 16.8724 16.1999C17.0189 16.1214 17.1104 15.9686 17.1104 15.8024H16.6594ZM8.7794 5.05477V15.8024H9.6813V5.05477H8.7794ZM2.05108 5.4302C2.93285 4.84346 4.15258 4.46999 5.51581 4.46999V3.56809C3.99574 3.56809 2.59777 3.98311 1.55146 4.67934L2.05108 5.4302ZM5.51581 4.46999C6.87904 4.46999 8.09876 4.84346 8.98054 5.4302L9.48016 4.67934C8.43385 3.98311 7.03588 3.56809 5.51581 3.56809V4.46999ZM2.05108 16.1778C2.93285 15.5911 4.15258 15.2176 5.51581 15.2176V14.3157C3.99574 14.3157 2.59777 14.7307 1.55146 15.4269L2.05108 16.1778ZM5.51581 15.2176C6.87904 15.2176 8.09876 15.5911 8.98054 16.1778L9.48016 15.4269C8.43385 14.7307 7.03588 14.3157 5.51581 14.3157V15.2176ZM1.35032 5.05477V15.8024H2.25222V5.05477H1.35032ZM16.9092 4.67934C15.8629 3.98311 14.465 3.56809 12.9449 3.56809V4.46999C14.3081 4.46999 15.5278 4.84346 16.4096 5.4302L16.9092 4.67934ZM12.9449 3.56809C11.4248 3.56809 10.0268 3.98311 8.98054 4.67934L9.48016 5.4302C10.3619 4.84346 11.5817 4.46999 12.9449 4.46999V3.56809ZM16.9092 15.4269C15.8629 14.7307 14.465 14.3157 12.9449 14.3157V15.2176C14.3081 15.2176 15.5278 15.5911 16.4096 16.1778L16.9092 15.4269ZM12.9449 14.3157C11.4248 14.3157 10.0268 14.7307 8.98054 15.4269L9.48016 16.1778C10.3619 15.5911 11.5817 15.2176 12.9449 15.2176V14.3157ZM16.2085 5.05477V15.8024H17.1104V5.05477H16.2085Z" fill="#4D4D4D"/>
</svg>
