<svg width="30" height="23" viewBox="0 0 30 23" fill="none" xmlns="http://www.w3.org/2000/svg">
<path d="M28.75 23H1.25C0.56 23 0 22.328 0 21.5C0 20.672 0.56 20 1.25 20H28.75C29.44 20 30 20.672 30 21.5C30 22.328 29.44 23 28.75 23Z" fill="white"/>
<path d="M28.75 13H1.25C0.56 13 0 12.328 0 11.5C0 10.672 0.56 10 1.25 10H28.75C29.44 10 30 10.672 30 11.5C30 12.328 29.44 13 28.75 13Z" fill="white"/>
<path d="M16.7143 3H1.28571C0.576 3 0 2.328 0 1.5C0 0.672 0.576 0 1.28571 0H16.7143C17.424 0 18 0.672 18 1.5C18 2.328 17.424 3 16.7143 3Z" fill="white"/>
</svg>
