<svg width="28" height="27" viewBox="0 0 28 27" fill="none" xmlns="http://www.w3.org/2000/svg">
<path d="M5.8859 4.52106H0.810092C0.362635 4.52106 0 4.15819 0 3.71097C0 3.26376 0.362635 2.90088 0.810092 2.90088H5.8859C6.33335 2.90088 6.69599 3.26376 6.69599 3.71097C6.69599 4.15819 6.33335 4.52106 5.8859 4.52106Z" fill="white"/>
<path d="M8.78631 7.42132C6.74021 7.42132 5.07568 5.75679 5.07568 3.71087C5.07568 1.66453 6.74021 0 8.78631 0C10.8324 0 12.4969 1.66453 12.4969 3.71087C12.4969 5.75685 10.8324 7.42132 8.78631 7.42132ZM8.78631 1.62024C7.63362 1.62024 6.69587 2.55817 6.69587 3.71087C6.69587 4.86357 7.63362 5.80108 8.78631 5.80108C9.93901 5.80108 10.8768 4.86357 10.8768 3.71087C10.8768 2.55817 9.93901 1.62024 8.78631 1.62024Z" fill="white"/>
<path d="M26.7332 4.52106H14.6255C14.1781 4.52106 13.8154 4.15819 13.8154 3.71097C13.8154 3.26376 14.1781 2.90088 14.6255 2.90088H26.7331C27.1806 2.90088 27.5432 3.26376 27.5432 3.71097C27.5432 4.15819 27.1806 4.52106 26.7332 4.52106Z" fill="white"/>
<path d="M19.6633 17.2104C17.6171 17.2104 15.9526 15.5459 15.9526 13.5C15.9526 11.4541 17.6172 9.78955 19.6633 9.78955C21.7094 9.78955 23.3739 11.4541 23.3739 13.5C23.3739 15.5459 21.7094 17.2104 19.6633 17.2104ZM19.6633 11.4098C18.5106 11.4098 17.5728 12.3473 17.5728 13.5C17.5728 14.6527 18.5106 15.5902 19.6633 15.5902C20.816 15.5902 21.7537 14.6527 21.7537 13.5C21.7537 12.3473 20.816 11.4098 19.6633 11.4098Z" fill="white"/>
<path d="M13.8242 14.3101H0.810092C0.362635 14.3101 0 13.9472 0 13.5C0 13.0528 0.362635 12.6899 0.810092 12.6899H13.8242C14.2717 12.6899 14.6343 13.0528 14.6343 13.5C14.6343 13.9472 14.2717 14.3101 13.8242 14.3101Z" fill="white"/>
<path d="M26.7335 14.3101H22.564C22.1165 14.3101 21.7539 13.9472 21.7539 13.5C21.7539 13.0528 22.1165 12.6899 22.564 12.6899H26.7335C27.1809 12.6899 27.5436 13.0528 27.5436 13.5C27.5436 13.9472 27.1809 14.3101 26.7335 14.3101Z" fill="white"/>
<path d="M7.88006 26.9999C5.83396 26.9999 4.16943 25.3354 4.16943 23.2891C4.16943 21.2431 5.83396 19.5786 7.88006 19.5786C9.92617 19.5786 11.5907 21.2431 11.5907 23.2891C11.5907 25.3354 9.92617 26.9999 7.88006 26.9999ZM7.88006 21.1989C6.72737 21.1989 5.78962 22.1364 5.78962 23.2891C5.78962 24.4418 6.72737 25.3797 7.88006 25.3797C9.03276 25.3797 9.97051 24.4418 9.97051 23.2891C9.97051 22.1364 9.03276 21.1989 7.88006 21.1989Z" fill="white"/>
<path d="M26.7334 24.0992H13.7193C13.2718 24.0992 12.9092 23.7363 12.9092 23.2891C12.9092 22.8419 13.2718 22.479 13.7193 22.479H26.7334C27.1809 22.479 27.5435 22.8419 27.5435 23.2891C27.5435 23.7363 27.1809 24.0992 26.7334 24.0992Z" fill="white"/>
<path d="M4.97958 24.0992H0.810092C0.362635 24.0992 0 23.7364 0 23.2891C0 22.8419 0.362635 22.479 0.810092 22.479H4.97958C5.42704 22.479 5.78967 22.8419 5.78967 23.2891C5.78967 23.7364 5.42704 24.0992 4.97958 24.0992Z" fill="white"/>
</svg>
