<svg width="16" height="16" viewBox="0 0 16 16" fill="none" xmlns="http://www.w3.org/2000/svg">
<path d="M1.23071 6.656L5.46147 5.76001L7.99992 1.28001L10.5384 5.76001L14.7691 6.656L11.3845 10.24L12.2307 14.72L7.99992 12.48L3.76917 14.72L4.61532 10.24L1.23071 6.656Z" fill="#FFEF9C"/>
<path fill-rule="evenodd" clip-rule="evenodd" d="M5.46147 5.76001L7.99992 1.28001L10.5384 5.76001L14.7691 6.656L11.3845 10.24L12.2307 14.72L7.99992 12.48L3.76917 14.72L4.61532 10.24L1.23071 6.656L5.46147 5.76001ZM3.28264 10.6554L0.352708 7.5529C0.0365897 7.21816 -0.0780963 6.73038 0.0538272 6.2817C0.185751 5.83302 0.543138 5.49536 0.985206 5.40174L4.67927 4.6194L6.93965 0.630153C7.1609 0.239679 7.5642 0 8 0C8.4358 0 8.8391 0.239679 9.06035 0.630153L11.3207 4.6194L15.0148 5.40174C15.4569 5.49536 15.8142 5.83302 15.9462 6.2817C16.0781 6.73038 15.9634 7.21816 15.6473 7.5529L12.7174 10.6554L13.4384 14.4733C13.5292 14.9538 13.3483 15.4462 12.9726 15.7414C12.5968 16.0365 12.092 16.0829 11.6724 15.8607L8 13.9163L4.32762 15.8607C3.90796 16.0829 3.40318 16.0365 3.02742 15.7414C2.65165 15.4462 2.47079 14.9538 2.56156 14.4733L3.28264 10.6554Z" fill="#E89B05"/>
</svg>
