<svg width="36" height="36" viewBox="0 0 36 36" fill="none" xmlns="http://www.w3.org/2000/svg">
<path d="M30.728 5.27203C27.3281 1.87235 22.808 0 18 0C13.192 0 8.67185 1.87235 5.27203 5.27203C1.87235 8.67185 0 13.192 0 18C0 22.808 1.87235 27.3281 5.27203 30.728C8.67185 34.1276 13.192 36 18 36C22.808 36 27.3281 34.1276 30.728 30.728C34.1276 27.3281 36 22.808 36 18C36 13.192 34.1276 8.67185 30.728 5.27203ZM18 33.8906C9.23787 33.8906 2.10938 26.7621 2.10938 18C2.10938 9.23787 9.23787 2.10938 18 2.10938C26.7621 2.10938 33.8906 9.23787 33.8906 18C33.8906 26.7621 26.7621 33.8906 18 33.8906Z" fill="white"/>
<path d="M20.8179 17.8276L15.8491 16.1712C15.2431 15.9693 14.8359 15.4044 14.8359 14.7656C14.8359 13.6222 16.2849 12.6562 18 12.6562C19.7151 12.6562 21.1641 13.6222 21.1641 14.7656H23.2734C23.2734 13.5976 22.6692 12.4746 21.6159 11.6845C20.8965 11.1449 20.0111 10.7844 19.0547 10.631V8.4375H16.9453V10.6311C15.9889 10.7845 15.1035 11.145 14.3841 11.6846C13.3307 12.4746 12.7266 13.5976 12.7266 14.7656C12.7266 16.3138 13.7133 17.6829 15.182 18.1724L20.1509 19.8288C20.7569 20.0307 21.1641 20.5956 21.1641 21.2344C21.1641 22.3778 19.7151 23.3438 18 23.3438C16.2849 23.3438 14.8359 22.3778 14.8359 21.2344H12.7266C12.7266 22.4024 13.3307 23.5254 14.3841 24.3155C15.1036 24.8551 15.9889 25.2156 16.9453 25.369V27.5625H19.0547V25.3689C20.0111 25.2155 20.8965 24.855 21.6159 24.3154C22.6692 23.5254 23.2734 22.4024 23.2734 21.2344C23.2734 19.6862 22.2867 18.3171 20.8179 17.8276Z" fill="white"/>
</svg>
