<svg width="30" height="30" viewBox="0 0 30 30" fill="none" xmlns="http://www.w3.org/2000/svg">
<path d="M30 14.4038C30 12.3052 28.2987 10.604 26.2001 10.604C25.7503 4.6797 20.8989 0 15 0C9.10112 0 4.24969 4.6797 3.79987 10.604C1.70126 10.604 1.90278e-07 12.3052 1.49275e-07 14.4038L1.07918e-07 16.5205C4.83167e-08 19.5711 2.47294 22.044 5.52346 22.044V11.504C5.52346 6.15318 9.7746 1.8 15 1.8C20.2254 1.8 24.4765 6.15318 24.4765 11.504V21.144C24.0664 23.6486 21.5044 26.272 18.3554 26.272H17.2073C16.8393 25.1527 15.8054 24.344 14.5898 24.344C13.067 24.344 11.8281 25.6127 11.8281 27.172C11.8281 28.7314 13.067 30 14.5898 30C15.8054 30 16.8393 29.1913 17.2073 28.072H18.3554C22.1763 28.072 24.9902 25.38 26.1824 22.044C28.2908 22.044 30 20.3348 30 18.2264V14.4038ZM3.76565 20.244H1.75782V12.404H3.76565V20.244ZM14.5898 28.2C14.0363 28.2 13.5859 27.7388 13.5859 27.172C13.5859 26.6052 14.0363 26.144 14.5898 26.144C15.1434 26.144 15.5938 26.6052 15.5938 27.172C15.5938 27.7388 15.1434 28.2 14.5898 28.2ZM28.2422 20.244H26.2343V12.404H28.2422V20.244Z" fill="white"/>
</svg>
