<svg width="27" height="31" viewBox="0 0 27 31" fill="none" xmlns="http://www.w3.org/2000/svg">
<path d="M23.25 31H3.52273C1.581 31 0 29.419 0 27.4773V3.52273C0 1.581 1.581 0 3.52273 0H23.25C25.1917 0 26.7727 1.581 26.7727 3.52273V27.4773C26.7727 29.419 25.1917 31 23.25 31ZM3.52273 1.40909C2.35741 1.40909 1.40909 2.35741 1.40909 3.52273V27.4773C1.40909 28.6426 2.35741 29.5909 3.52273 29.5909H23.25C24.4153 29.5909 25.3636 28.6426 25.3636 27.4773V3.52273C25.3636 2.35741 24.4153 1.40909 23.25 1.40909H3.52273Z" fill="#242424"/>
<path d="M21.8409 22.5453H6.3409C5.95199 22.5453 5.63635 22.2297 5.63635 21.8408C5.63635 21.4519 5.95199 21.1362 6.3409 21.1362H21.8409C22.2298 21.1362 22.5454 21.4519 22.5454 21.8408C22.5454 22.2297 22.2298 22.5453 21.8409 22.5453Z" fill="#242424"/>
<path d="M21.8409 16.9091H6.3409C5.95199 16.9091 5.63635 16.5935 5.63635 16.2045C5.63635 15.8156 5.95199 15.5 6.3409 15.5H21.8409C22.2298 15.5 22.5454 15.8156 22.5454 16.2045C22.5454 16.5935 22.2298 16.9091 21.8409 16.9091Z" fill="#242424"/>
<path d="M14.7954 11.2729H6.3409C5.95199 11.2729 5.63635 10.9572 5.63635 10.5683C5.63635 10.1794 5.95199 9.86377 6.3409 9.86377H14.7954C15.1844 9.86377 15.5 10.1794 15.5 10.5683C15.5 10.9572 15.1844 11.2729 14.7954 11.2729Z" fill="#242424"/>
</svg>
