<svg width="36" height="36" viewBox="0 0 36 36" fill="none" xmlns="http://www.w3.org/2000/svg">
<path fill-rule="evenodd" clip-rule="evenodd" d="M18.0001 32.4001C25.953 32.4001 32.4001 25.953 32.4001 18.0001C32.4001 10.0472 25.953 3.6001 18.0001 3.6001C10.0472 3.6001 3.6001 10.0472 3.6001 18.0001C3.6001 25.953 10.0472 32.4001 18.0001 32.4001ZM17.1986 12.9024C16.6462 12.5342 15.936 12.4999 15.3508 12.8131C14.7655 13.1263 14.4001 13.7363 14.4001 14.4001V21.6001C14.4001 22.2639 14.7655 22.8739 15.3508 23.1871C15.936 23.5003 16.6462 23.466 17.1986 23.0978L22.5986 19.4978C23.0993 19.164 23.4001 18.6019 23.4001 18.0001C23.4001 17.3983 23.0993 16.8362 22.5986 16.5024L17.1986 12.9024Z" fill="#F6F8FF"/>
</svg>
