<svg width="36" height="36" viewBox="0 0 36 36" fill="none" xmlns="http://www.w3.org/2000/svg">
<path fill-rule="evenodd" clip-rule="evenodd" d="M18 32.4001C25.9529 32.4001 32.4 25.953 32.4 18.0001C32.4 10.0472 25.9529 3.6001 18 3.6001C10.0471 3.6001 3.60001 10.0472 3.60001 18.0001C3.60001 25.953 10.0471 32.4001 18 32.4001ZM17.1985 12.9024C16.6461 12.5342 15.9359 12.4999 15.3507 12.8131C14.7654 13.1263 14.4 13.7363 14.4 14.4001V21.6001C14.4 22.2639 14.7654 22.8739 15.3507 23.1871C15.9359 23.5003 16.6461 23.466 17.1985 23.0978L22.5985 19.4978C23.0992 19.164 23.4 18.6019 23.4 18.0001C23.4 17.3983 23.0992 16.8362 22.5985 16.5024L17.1985 12.9024Z" fill="#242424"/>
</svg>
