<svg width="249" height="222" viewBox="0 0 249 222" fill="none" xmlns="http://www.w3.org/2000/svg">
<path fill-rule="evenodd" clip-rule="evenodd" d="M208.919 78.7028C204.238 54.2059 197.187 23.9597 190.722 22.775C185.339 21.7885 169.16 36.5902 154.132 51.8604C144.743 49.8654 134.859 48.8003 124.654 48.8003C114.305 48.8003 104.284 49.896 94.7751 51.9463C79.7232 36.6458 63.494 21.7866 58.101 22.775C51.5896 23.9683 44.4824 54.6448 39.8032 79.2333C23.2018 94.3547 13.1801 113.968 13.1801 135.4C13.1801 183.228 63.0889 222 124.654 222C186.22 222 236.129 183.228 236.129 135.4C236.129 113.717 225.871 93.8946 208.919 78.7028Z" fill="#FFEBA8"/>
<g style="mix-blend-mode:multiply">
<path fill-rule="evenodd" clip-rule="evenodd" d="M95.4803 51.7958V75.2292C95.4803 80.5999 99.8341 84.9538 105.205 84.9538C110.552 84.9538 114.892 80.6375 114.929 75.2989V83.6312C114.929 89.002 119.283 93.3558 124.654 93.3558C130.024 93.3558 134.378 89.002 134.378 83.6312V75.2538C134.392 80.6132 138.74 84.9538 144.103 84.9538C149.474 84.9538 153.827 80.6 153.827 75.2292V51.7959C144.529 49.8423 134.748 48.8 124.653 48.8C114.56 48.8 104.779 49.8423 95.4803 51.7958Z" fill="#FFEBA8"/>
</g>
<path d="M216.101 130.796C229.337 126.062 231.631 125.27 245.805 122.743" stroke="#323232" stroke-width="3.6851" stroke-linecap="round" stroke-linejoin="round"/>
<path d="M213.097 156.332C226.846 160.059 233.031 160.819 246.144 166.847" stroke="#323232" stroke-width="3.6851" stroke-linecap="round" stroke-linejoin="round"/>
<path d="M217.603 144.315C230.262 143.57 234.467 145.063 247.109 146.647" stroke="#323232" stroke-width="3.6851" stroke-linecap="round" stroke-linejoin="round"/>
<path d="M33.2076 130.796C19.9711 126.062 17.6772 125.27 3.50334 122.743" stroke="#323232" stroke-width="3.6851" stroke-linecap="round" stroke-linejoin="round"/>
<path d="M36.2117 156.332C22.4628 160.059 16.2773 160.819 3.16432 166.847" stroke="#323232" stroke-width="3.6851" stroke-linecap="round" stroke-linejoin="round"/>
<path d="M31.7053 144.315C19.0457 143.57 14.841 145.063 2.1991 146.647" stroke="#323232" stroke-width="3.6851" stroke-linecap="round" stroke-linejoin="round"/>
<circle cx="73.2937" cy="121.581" r="18.6558" fill="#323232"/>
<circle cx="81.8157" cy="119.278" r="4.14574" fill="white"/>
<path d="M159.662 130.309C159.662 127.755 160.115 125.226 160.995 122.866C161.874 120.507 163.164 118.363 164.789 116.557C166.415 114.751 168.344 113.318 170.468 112.341C172.592 111.363 174.868 110.86 177.167 110.86C179.465 110.86 181.741 111.363 183.865 112.341C185.989 113.318 187.918 114.751 189.544 116.557C191.169 118.363 192.459 120.507 193.338 122.866C194.218 125.226 194.671 127.755 194.671 130.309" stroke="#323232" stroke-width="4.86229" stroke-linecap="round" stroke-linejoin="round"/>
<path d="M136.632 139.085C136.632 142.647 132.507 145.534 127.419 145.534C122.331 145.534 118.206 142.647 118.206 139.085C118.206 135.523 122.331 131.715 127.419 131.715C132.507 131.715 136.632 135.523 136.632 139.085Z" fill="#323232"/>
<path d="M127.419 136.321V149.219C127.419 153.29 124.119 156.589 120.049 156.589H117.745C114.947 156.589 112.678 154.321 112.678 151.522V151.522" stroke="#323232" stroke-width="3.88983" stroke-linecap="round" stroke-linejoin="round"/>
<path d="M127.418 136.321V149.219C127.418 153.29 130.718 156.589 134.789 156.589H137.092C139.89 156.589 142.159 154.321 142.159 151.522V151.522" stroke="#323232" stroke-width="3.88983" stroke-linecap="round" stroke-linejoin="round"/>
<circle cx="131.104" cy="136.321" r="1.84255" fill="white"/>
<g style="mix-blend-mode:multiply">
<path d="M48.8631 71.8986C51.5833 58.4367 54.2169 49.3828 59.67 35.4586C60.0859 34.3965 61.3658 33.9676 62.3341 34.5704C72.8987 41.1466 78.7098 46.1845 86.7224 54.8106C87.6504 55.8097 87.192 57.4336 85.8825 57.8137C72.0211 61.8375 63.4082 64.5146 51.9454 73.7115C50.5759 74.8102 48.5153 73.6195 48.8631 71.8986Z" fill="#FFEBA8"/>
<path d="M198.106 70.5885C196.717 56.7883 195.397 48.5834 189.665 34.4607C189.237 33.4085 187.959 32.9992 187.001 33.6087C177.423 39.701 171.956 44.2238 162.986 52.6103C161.945 53.5835 162.361 55.3205 163.726 55.7279C177.334 59.7887 183.774 62.6783 195.022 72.1778C196.3 73.2568 198.273 72.2524 198.106 70.5885Z" fill="#FFEBA8"/>
</g>
<circle cx="56.4796" cy="160.274" r="15.6617" fill="#FFAC99"/>
<circle cx="192.829" cy="160.274" r="15.6617" fill="#FFAC99"/>
<path d="M125.885 19.9816C131.894 13.8595 136.77 22.5691 136.77 22.5691C136.77 22.5691 146.504 17.3327 148.668 25.3974C150.831 33.4621 132.42 40.8701 132.42 40.8701C132.42 40.8701 119.876 26.1036 125.885 19.9816Z" fill="#FFE312"/>
<path d="M150.162 2.25276C154.421 -1.62597 157.363 4.39663 157.363 4.39663C157.363 4.39663 164.086 1.25166 165.233 6.73995C166.381 12.2282 153.758 16.5031 153.758 16.5031C153.758 16.5031 145.903 6.13149 150.162 2.25276Z" fill="#FFE312"/>
</svg>
